# Blender v2.93.5 OBJ File: ''
# www.blender.org
mtllib basket.mtl
o Cube.021_Cube.027
v 0.081233 0.163781 -0.126011
v 0.097042 0.436377 -0.138259
v 0.081233 0.163781 -0.409300
v 0.097042 0.436377 -0.398088
v 0.246994 0.163781 -0.126011
v 0.234809 0.436377 -0.138259
v 0.246994 0.163781 -0.409300
v 0.234809 0.436377 -0.398088
v 0.081233 0.436377 -0.126011
v 0.081233 0.436377 -0.409300
v 0.246994 0.436377 -0.409300
v 0.246994 0.436377 -0.126011
v 0.097042 0.164893 -0.138259
v 0.097042 0.164893 -0.398088
v 0.234809 0.164893 -0.398088
v 0.234809 0.164893 -0.138259
v 0.081233 0.182587 -0.126011
v 0.081233 0.182587 -0.409300
v 0.246994 0.182587 -0.409300
v 0.246994 0.182587 -0.126011
v 0.077975 0.163781 -0.414869
v 0.077975 0.163781 -0.120443
v 0.077975 0.182587 -0.414869
v 0.250253 0.163781 -0.414869
v 0.250253 0.182587 -0.414869
v 0.250253 0.163781 -0.120443
v 0.250253 0.182587 -0.120443
v 0.077975 0.182587 -0.120443
v 0.081233 0.366477 -0.126011
v 0.081233 0.366477 -0.409300
v 0.246994 0.366477 -0.409300
v 0.246994 0.366477 -0.126011
v 0.081233 0.356138 -0.409300
v 0.246994 0.356138 -0.409300
v 0.246994 0.356138 -0.126011
v 0.081233 0.356138 -0.126011
v 0.081233 0.345503 -0.409300
v 0.246994 0.345503 -0.409300
v 0.246994 0.345503 -0.126011
v 0.081233 0.345503 -0.126011
v 0.081233 0.336799 -0.409300
v 0.246994 0.336799 -0.409300
v 0.246994 0.336799 -0.126011
v 0.081233 0.336799 -0.126011
v 0.081233 0.325790 -0.409300
v 0.246994 0.325790 -0.409300
v 0.246994 0.325790 -0.126011
v 0.081233 0.325790 -0.126011
v 0.081233 0.314565 -0.409300
v 0.246994 0.314565 -0.409300
v 0.246994 0.314565 -0.126011
v 0.081233 0.314565 -0.126011
v 0.081233 0.249738 -0.409300
v 0.246994 0.249738 -0.409300
v 0.246994 0.249738 -0.126011
v 0.081233 0.249738 -0.126011
v 0.077544 0.356138 -0.119706
v 0.077544 0.366477 -0.119706
v 0.250684 0.366477 -0.119706
v 0.250684 0.366477 -0.415605
v 0.077544 0.366477 -0.415605
v 0.077544 0.356138 -0.415605
v 0.250684 0.356138 -0.415605
v 0.250684 0.356138 -0.119706
v 0.077544 0.336799 -0.119706
v 0.077544 0.345503 -0.119706
v 0.250684 0.345503 -0.119706
v 0.250684 0.345503 -0.415605
v 0.077544 0.345503 -0.415605
v 0.077544 0.336799 -0.415605
v 0.250684 0.336799 -0.415605
v 0.250684 0.336799 -0.119706
v 0.077544 0.314565 -0.119706
v 0.077544 0.325790 -0.119706
v 0.250684 0.325790 -0.119706
v 0.250684 0.325790 -0.415605
v 0.077544 0.325790 -0.415605
v 0.077544 0.314565 -0.415605
v 0.250684 0.314565 -0.415605
v 0.250684 0.314565 -0.119706
v 0.080674 0.293521 -0.126998
v 0.080674 0.293521 -0.410287
v 0.246435 0.293521 -0.410287
v 0.246435 0.293521 -0.126998
v 0.080674 0.283182 -0.410287
v 0.246435 0.283182 -0.410287
v 0.246435 0.283182 -0.126998
v 0.080674 0.283182 -0.126998
v 0.080674 0.272547 -0.410287
v 0.246435 0.272547 -0.410287
v 0.246435 0.272547 -0.126998
v 0.080674 0.272547 -0.126998
v 0.080674 0.263843 -0.410287
v 0.246435 0.263843 -0.410287
v 0.246435 0.263843 -0.126998
v 0.080674 0.263843 -0.126998
v 0.080674 0.252834 -0.410287
v 0.246435 0.252834 -0.410287
v 0.246435 0.252834 -0.126998
v 0.080674 0.252834 -0.126998
v 0.080674 0.241609 -0.410287
v 0.246435 0.241609 -0.410287
v 0.246435 0.241609 -0.126998
v 0.080674 0.241609 -0.126998
v 0.076984 0.283182 -0.120693
v 0.076984 0.293521 -0.120693
v 0.250124 0.293521 -0.120693
v 0.250124 0.293521 -0.416592
v 0.076984 0.293521 -0.416592
v 0.076984 0.283182 -0.416592
v 0.250124 0.283182 -0.416592
v 0.250124 0.283182 -0.120693
v 0.076984 0.263843 -0.120693
v 0.076984 0.272547 -0.120693
v 0.250124 0.272547 -0.120693
v 0.250124 0.272547 -0.416592
v 0.076984 0.272547 -0.416592
v 0.076984 0.263843 -0.416592
v 0.250124 0.263843 -0.416592
v 0.250124 0.263843 -0.120693
v 0.076984 0.241609 -0.120693
v 0.076984 0.252834 -0.120693
v 0.250124 0.252834 -0.120693
v 0.250124 0.252834 -0.416592
v 0.076984 0.252834 -0.416592
v 0.076984 0.241609 -0.416592
v 0.250124 0.241609 -0.416592
v 0.250124 0.241609 -0.120693
v 0.081233 0.426873 -0.126011
v 0.081233 0.426873 -0.409300
v 0.246994 0.426873 -0.409300
v 0.246994 0.426873 -0.126011
v 0.077317 0.426873 -0.119317
v 0.077317 0.436377 -0.119317
v 0.077317 0.436377 -0.415994
v 0.250911 0.436377 -0.415994
v 0.250911 0.436377 -0.119317
v 0.077317 0.426873 -0.415994
v 0.250911 0.426873 -0.415994
v 0.250911 0.426873 -0.119317
vt 0.024500 0.022924
vt 0.976620 0.022924
vt 0.999118 0.000426
vt 0.002002 0.000426
vt 0.976620 0.975044
vt 0.024500 0.975044
vt 0.002002 0.997542
vt 0.999118 0.997542
vt 0.976620 0.975044
vt 0.976620 0.022924
vt 0.999118 0.000426
vt 0.999118 0.997542
vt 0.024500 0.975044
vt 0.976620 0.975044
vt 0.976620 0.022924
vt 0.024500 0.022924
vt 0.064280 0.879044
vt 0.937553 0.879044
vt 0.937553 0.079910
vt 0.064280 0.079910
vt 0.115302 0.064089
vt 0.115302 0.937362
vt 0.024500 0.975044
vt 0.024500 0.022924
vt 0.906630 0.937362
vt 0.906630 0.064089
vt 0.906630 0.937362
vt 0.115302 0.937362
vt 0.115302 0.064089
vt 0.906630 0.064089
vt 0.937553 0.879044
vt 0.064280 0.879044
vt 0.064280 0.079910
vt 0.937553 0.079910
vt 0.115302 0.879044
vt 0.906630 0.879044
vt 0.906630 0.079910
vt 0.115302 0.079910
vt 0.906630 0.879044
vt 0.115302 0.879044
vt 0.115302 0.079910
vt 0.906630 0.079910
vt 0.005784 0.004208
vt 0.005784 0.993760
vt 0.976620 0.975044
vt 0.976620 0.022924
vt 0.995336 0.004208
vt 0.995336 0.993760
vt 0.024500 0.022924
vt 0.024500 0.975044
vt 0.005784 0.993760
vt 0.005784 0.004208
vt 0.995336 0.993760
vt 0.995336 0.076639
vt 0.995336 0.131995
vt 0.005784 0.131995
vt 0.005784 0.076639
vt 0.993951 0.076639
vt 0.993951 0.131995
vt 0.004399 0.131995
vt 0.004399 0.076639
vt 0.005784 0.076639
vt 0.005784 0.131995
vt 0.995336 0.131995
vt 0.995336 0.076639
vt 0.004399 0.076639
vt 0.004399 0.131995
vt 0.993951 0.131995
vt 0.993951 0.076639
vt 0.995336 0.004208
vt 0.024500 0.975044
vt 0.024500 0.022924
vt 0.003309 0.001732
vt 0.003309 0.996236
vt 0.976620 0.975044
vt 0.024500 0.975044
vt 0.003309 0.996236
vt 0.997812 0.996236
vt 0.976620 0.022924
vt 0.976620 0.975044
vt 0.997812 0.996236
vt 0.997812 0.001732
vt 0.976620 0.022924
vt 0.024500 0.022924
vt 0.003309 0.001732
vt 0.997812 0.001732
vt 0.023115 0.611550
vt 0.023115 0.642856
vt 0.975235 0.642856
vt 0.975235 0.611550
vt 0.024500 0.611550
vt 0.024500 0.642856
vt 0.976620 0.642856
vt 0.976620 0.611550
vt 0.975235 0.611550
vt 0.975235 0.642856
vt 0.023115 0.642856
vt 0.023115 0.611550
vt 0.976620 0.611550
vt 0.976620 0.642856
vt 0.024500 0.642856
vt 0.024500 0.611550
vt 0.976620 0.975044
vt 0.976620 0.022924
vt 0.997812 0.001732
vt 0.997812 0.996236
vt 0.024500 0.975044
vt 0.976620 0.975044
vt 0.997812 0.996236
vt 0.003309 0.996236
vt 0.024500 0.022924
vt 0.003309 0.001732
vt 0.024500 0.975044
vt 0.003309 0.996236
vt 0.023115 0.553522
vt 0.023115 0.585929
vt 0.975235 0.585929
vt 0.975235 0.553522
vt 0.024500 0.553522
vt 0.024500 0.585929
vt 0.976620 0.585929
vt 0.976620 0.553522
vt 0.975235 0.553522
vt 0.975235 0.585929
vt 0.023115 0.585929
vt 0.023115 0.553522
vt 0.976620 0.553522
vt 0.976620 0.585929
vt 0.024500 0.585929
vt 0.024500 0.553522
vt 0.024500 0.022924
vt 0.003309 0.001732
vt 0.976620 0.022924
vt 0.997812 0.001732
vt 0.024500 0.022924
vt 0.003309 0.001732
vt 0.024500 0.022924
vt 0.003309 0.001732
vt 0.023115 0.329658
vt 0.023115 0.520481
vt 0.975235 0.520481
vt 0.975235 0.329658
vt 0.024500 0.329658
vt 0.024500 0.520481
vt 0.976620 0.520481
vt 0.976620 0.329658
vt 0.975235 0.329658
vt 0.975235 0.520481
vt 0.023115 0.520481
vt 0.023115 0.329658
vt 0.976620 0.329658
vt 0.976620 0.520481
vt 0.024500 0.520481
vt 0.024500 0.329658
vt 0.976620 0.131995
vt 0.024500 0.131995
vt 0.975235 0.131995
vt 0.023115 0.131995
vt 0.024500 0.131995
vt 0.976620 0.131995
vt 0.023115 0.131995
vt 0.975235 0.131995
vt 0.997812 0.642856
vt 0.997812 0.673289
vt 0.003309 0.673289
vt 0.003309 0.642856
vt 0.996427 0.642856
vt 0.996427 0.673289
vt 0.001924 0.673289
vt 0.001924 0.642856
vt 0.003309 0.642856
vt 0.003309 0.673289
vt 0.997812 0.673289
vt 0.997812 0.642856
vt 0.001924 0.642856
vt 0.001924 0.673289
vt 0.996427 0.673289
vt 0.996427 0.642856
vt 0.997812 0.585929
vt 0.997812 0.611550
vt 0.003309 0.611550
vt 0.003309 0.585929
vt 0.996427 0.585929
vt 0.996427 0.611550
vt 0.001924 0.611550
vt 0.001924 0.585929
vt 0.003309 0.585929
vt 0.003309 0.611550
vt 0.997812 0.611550
vt 0.997812 0.585929
vt 0.001924 0.585929
vt 0.001924 0.611550
vt 0.996427 0.611550
vt 0.996427 0.585929
vt 0.997812 0.520481
vt 0.997812 0.553522
vt 0.003309 0.553522
vt 0.003309 0.520481
vt 0.996427 0.520481
vt 0.996427 0.553522
vt 0.001924 0.553522
vt 0.001924 0.520481
vt 0.003309 0.520481
vt 0.003309 0.553522
vt 0.997812 0.553522
vt 0.997812 0.520481
vt 0.001924 0.520481
vt 0.001924 0.553522
vt 0.996427 0.553522
vt 0.996427 0.520481
vt 0.024500 0.975044
vt 0.003309 0.996236
vt 0.976620 0.975044
vt 0.997812 0.996236
vt 0.976620 0.022924
vt 0.997812 0.001732
vt 0.976620 0.975044
vt 0.997812 0.996236
vt 0.024500 0.975044
vt 0.003309 0.996236
vt 0.976620 0.022924
vt 0.997812 0.001732
vt 0.021285 0.978361
vt 0.021285 0.026241
vt 0.000094 0.005049
vt 0.000094 0.999553
vt 0.973405 0.978361
vt 0.021285 0.978361
vt 0.000094 0.999553
vt 0.994596 0.999553
vt 0.973405 0.026241
vt 0.973405 0.978361
vt 0.994596 0.999553
vt 0.994596 0.005049
vt 0.973405 0.026241
vt 0.021285 0.026241
vt 0.000094 0.005049
vt 0.994596 0.005049
vt 0.973405 0.978361
vt 0.973405 0.026241
vt 0.994596 0.005049
vt 0.994596 0.999553
vt 0.021285 0.978361
vt 0.973405 0.978361
vt 0.994596 0.999553
vt 0.000094 0.999553
vt 0.021285 0.026241
vt 0.000094 0.005049
vt 0.021285 0.978361
vt 0.000094 0.999553
vt 0.021285 0.026241
vt 0.000094 0.005049
vt 0.973405 0.026241
vt 0.994596 0.005049
vt 0.021285 0.026241
vt 0.000094 0.005049
vt 0.021285 0.026241
vt 0.000094 0.005049
vt 0.994596 0.428104
vt 0.994596 0.458537
vt 0.000094 0.458537
vt 0.000094 0.428104
vt 0.999744 0.428104
vt 0.999744 0.458537
vt 0.005240 0.458537
vt 0.005240 0.428104
vt 0.000094 0.428104
vt 0.000094 0.458537
vt 0.994596 0.458537
vt 0.994596 0.428104
vt 0.005240 0.428104
vt 0.005240 0.458537
vt 0.999744 0.458537
vt 0.999744 0.428104
vt 0.994596 0.371177
vt 0.994596 0.396799
vt 0.000094 0.396799
vt 0.000094 0.371177
vt 0.999744 0.371177
vt 0.999744 0.396799
vt 0.005240 0.396799
vt 0.005240 0.371177
vt 0.000094 0.371177
vt 0.000094 0.396799
vt 0.994596 0.396799
vt 0.994596 0.371177
vt 0.005240 0.371177
vt 0.005240 0.396799
vt 0.999744 0.396799
vt 0.999744 0.371177
vt 0.994596 0.305729
vt 0.994596 0.338771
vt 0.000094 0.338771
vt 0.000094 0.305729
vt 0.999744 0.305729
vt 0.999744 0.338771
vt 0.005240 0.338771
vt 0.005240 0.305729
vt 0.000094 0.305729
vt 0.000094 0.338771
vt 0.994596 0.338771
vt 0.994596 0.305729
vt 0.005240 0.305729
vt 0.005240 0.338771
vt 0.999744 0.338771
vt 0.999744 0.305729
vt 0.021285 0.978361
vt 0.000094 0.999553
vt 0.973405 0.978361
vt 0.994596 0.999553
vt 0.973405 0.026241
vt 0.994596 0.005049
vt 0.973405 0.978361
vt 0.994596 0.999553
vt 0.021285 0.978361
vt 0.000094 0.999553
vt 0.973405 0.026241
vt 0.994596 0.005049
vt 0.976620 0.673289
vt 0.976620 0.851069
vt 0.024500 0.851069
vt 0.024500 0.673289
vt 0.975235 0.673289
vt 0.975235 0.851069
vt 0.023115 0.851069
vt 0.023115 0.673289
vt 0.024500 0.673289
vt 0.024500 0.851069
vt 0.976620 0.851069
vt 0.976620 0.673289
vt 0.023115 0.673289
vt 0.023115 0.851069
vt 0.975235 0.851069
vt 0.975235 0.673289
vt 0.000617 0.851069
vt 0.000617 0.879044
vt 0.997733 0.879044
vt 0.997733 0.851069
vt 0.002002 0.851069
vt 0.002002 0.879044
vt 0.999118 0.879044
vt 0.999118 0.851069
vt 0.997733 0.851069
vt 0.997733 0.879044
vt 0.000617 0.879044
vt 0.000617 0.851069
vt 0.999118 0.851069
vt 0.999118 0.879044
vt 0.002002 0.879044
vt 0.002002 0.851069
vt 0.002002 0.997542
vt 0.002002 0.000426
vn 0.0000 -1.0000 0.0000
vn 0.0000 1.0000 0.0000
vn -1.0000 0.0000 0.0000
vn 1.0000 0.0000 0.0000
vn 0.0000 0.0000 -1.0000
vn 0.0000 0.0000 1.0000
usemtl Wood_panel
s off
f 129/1/1 132/2/1 140/3/1 133/4/1
f 131/5/1 130/6/1 138/7/1 139/8/1
f 11/9/2 12/10/2 137/11/2 136/12/2
f 132/2/1 131/5/1 139/8/1 140/3/1
f 3/13/1 7/14/1 5/15/1 1/16/1
f 6/17/3 8/18/3 15/19/3 16/20/3
f 2/21/2 4/22/2 10/23/2 9/24/2
f 4/22/2 8/25/2 11/9/2 10/23/2
f 8/25/2 6/26/2 12/10/2 11/9/2
f 6/26/2 2/21/2 9/24/2 12/10/2
f 15/27/2 14/28/2 13/29/2 16/30/2
f 4/31/4 2/32/4 13/33/4 14/34/4
f 2/35/5 6/36/5 16/37/5 13/38/5
f 8/39/6 4/40/6 14/41/6 15/42/6
f 3/13/1 1/16/1 22/43/1 21/44/1
f 19/45/2 20/46/2 27/47/2 25/48/2
f 17/49/2 18/50/2 23/51/2 28/52/2
f 7/14/1 3/13/1 21/44/1 24/53/1
f 26/54/6 27/55/6 28/56/6 22/57/6
f 24/58/4 25/59/4 27/60/4 26/61/4
f 21/62/5 23/63/5 25/64/5 24/65/5
f 22/66/3 28/67/3 23/68/3 21/69/3
f 5/15/1 7/14/1 24/53/1 26/70/1
f 18/50/2 19/45/2 25/48/2 23/51/2
f 20/46/2 17/49/2 28/52/2 27/47/2
f 1/16/1 5/15/1 26/70/1 22/43/1
f 49/71/1 52/72/1 73/73/1 78/74/1
f 42/75/1 41/76/1 70/77/1 71/78/1
f 35/79/1 34/80/1 63/81/1 64/82/1
f 47/83/2 48/84/2 74/85/2 75/86/2
f 40/87/3 36/88/3 33/89/3 37/90/3
f 37/91/5 33/92/5 34/93/5 38/94/5
f 38/95/4 34/96/4 35/97/4 39/98/4
f 39/99/6 35/100/6 36/101/6 40/102/6
f 38/103/2 39/104/2 67/105/2 68/106/2
f 30/107/2 31/108/2 60/109/2 61/110/2
f 41/76/1 44/111/1 65/112/1 70/77/1
f 34/80/1 33/113/1 62/114/1 63/81/1
f 48/115/3 44/116/3 41/117/3 45/118/3
f 45/119/5 41/120/5 42/121/5 46/122/5
f 46/123/4 42/124/4 43/125/4 47/126/4
f 47/127/6 43/128/6 44/129/6 48/130/6
f 39/104/2 40/131/2 66/132/2 67/105/2
f 31/108/2 32/133/2 59/134/2 60/109/2
f 33/113/1 36/135/1 57/136/1 62/114/1
f 32/133/2 29/137/2 58/138/2 59/134/2
f 56/139/3 52/140/3 49/141/3 53/142/3
f 53/143/5 49/144/5 50/145/5 54/146/5
f 54/147/4 50/148/4 51/149/4 55/150/4
f 55/151/6 51/152/6 52/153/6 56/154/6
f 20/155/6 55/151/6 56/154/6 17/156/6
f 19/157/4 54/147/4 55/150/4 20/158/4
f 18/159/5 53/143/5 54/146/5 19/160/5
f 17/161/3 56/139/3 53/142/3 18/162/3
f 64/163/6 59/164/6 58/165/6 57/166/6
f 63/167/4 60/168/4 59/169/4 64/170/4
f 62/171/5 61/172/5 60/173/5 63/174/5
f 57/175/3 58/176/3 61/177/3 62/178/3
f 72/179/6 67/180/6 66/181/6 65/182/6
f 71/183/4 68/184/4 67/185/4 72/186/4
f 70/187/5 69/188/5 68/189/5 71/190/5
f 65/191/3 66/192/3 69/193/3 70/194/3
f 80/195/6 75/196/6 74/197/6 73/198/6
f 79/199/4 76/200/4 75/201/4 80/202/4
f 78/203/5 77/204/5 76/205/5 79/206/5
f 73/207/3 74/208/3 77/209/3 78/210/3
f 29/137/2 30/107/2 61/110/2 58/138/2
f 37/211/2 38/103/2 68/106/2 69/212/2
f 46/213/2 47/83/2 75/86/2 76/214/2
f 36/135/1 35/79/1 64/82/1 57/136/1
f 43/215/1 42/75/1 71/78/1 72/216/1
f 50/217/1 49/71/1 78/74/1 79/218/1
f 40/131/2 37/211/2 69/212/2 66/132/2
f 45/219/2 46/213/2 76/214/2 77/220/2
f 44/111/1 43/215/1 72/216/1 65/112/1
f 51/221/1 50/217/1 79/218/1 80/222/1
f 48/84/2 45/219/2 77/220/2 74/85/2
f 52/72/1 51/221/1 80/222/1 73/73/1
f 101/223/1 104/224/1 121/225/1 126/226/1
f 94/227/1 93/228/1 118/229/1 119/230/1
f 87/231/1 86/232/1 111/233/1 112/234/1
f 99/235/2 100/236/2 122/237/2 123/238/2
f 90/239/2 91/240/2 115/241/2 116/242/2
f 82/243/2 83/244/2 108/245/2 109/246/2
f 93/228/1 96/247/1 113/248/1 118/229/1
f 86/232/1 85/249/1 110/250/1 111/233/1
f 91/240/2 92/251/2 114/252/2 115/241/2
f 83/244/2 84/253/2 107/254/2 108/245/2
f 85/249/1 88/255/1 105/256/1 110/250/1
f 84/253/2 81/257/2 106/258/2 107/254/2
f 112/259/6 107/260/6 106/261/6 105/262/6
f 111/263/4 108/264/4 107/265/4 112/266/4
f 110/267/5 109/268/5 108/269/5 111/270/5
f 105/271/3 106/272/3 109/273/3 110/274/3
f 120/275/6 115/276/6 114/277/6 113/278/6
f 119/279/4 116/280/4 115/281/4 120/282/4
f 118/283/5 117/284/5 116/285/5 119/286/5
f 113/287/3 114/288/3 117/289/3 118/290/3
f 128/291/6 123/292/6 122/293/6 121/294/6
f 127/295/4 124/296/4 123/297/4 128/298/4
f 126/299/5 125/300/5 124/301/5 127/302/5
f 121/303/3 122/304/3 125/305/3 126/306/3
f 81/257/2 82/243/2 109/246/2 106/258/2
f 89/307/2 90/239/2 116/242/2 117/308/2
f 98/309/2 99/235/2 123/238/2 124/310/2
f 88/255/1 87/231/1 112/234/1 105/256/1
f 95/311/1 94/227/1 119/230/1 120/312/1
f 102/313/1 101/223/1 126/226/1 127/314/1
f 92/251/2 89/307/2 117/308/2 114/252/2
f 97/315/2 98/309/2 124/310/2 125/316/2
f 96/247/1 95/311/1 120/312/1 113/248/1
f 103/317/1 102/313/1 127/314/1 128/318/1
f 100/236/2 97/315/2 125/316/2 122/237/2
f 104/224/1 103/317/1 128/318/1 121/225/1
f 32/319/6 132/320/6 129/321/6 29/322/6
f 31/323/4 131/324/4 132/325/4 32/326/4
f 30/327/5 130/328/5 131/329/5 31/330/5
f 29/331/3 129/332/3 130/333/3 30/334/3
f 133/335/3 134/336/3 135/337/3 138/338/3
f 138/339/5 135/340/5 136/341/5 139/342/5
f 139/343/4 136/344/4 137/345/4 140/346/4
f 140/347/6 137/348/6 134/349/6 133/350/6
f 9/24/2 10/23/2 135/351/2 134/352/2
f 12/10/2 9/24/2 134/352/2 137/11/2
f 130/6/1 129/1/1 133/4/1 138/7/1
f 10/23/2 11/9/2 136/12/2 135/351/2
