# Blender v2.93.5 OBJ File: ''
# www.blender.org
mtllib Joint2.mtl
o Cylinder.011_Cylinder.012
v 3.333936 0.711991 -3.139936
v 3.343335 0.714610 -3.127672
v 3.422607 0.422292 -3.126046
v 3.413215 0.419678 -3.138310
v 3.433655 0.425450 -3.097057
v 3.434883 0.425871 -3.081448
v 3.433146 0.425485 -3.065880
v 3.428514 0.424316 -3.050961
v 3.421163 0.422397 -3.037259
v 3.411379 0.419807 -3.025305
v 3.399530 0.416649 -3.015556
v 3.386074 0.413040 -3.008380
v 3.371535 0.409122 -3.004064
v 3.356464 0.405040 -3.002771
v 3.341445 0.400958 -3.004544
v 3.327053 0.397028 -3.009321
v 3.313836 0.393402 -3.016918
v 3.302315 0.390221 -3.027042
v 3.292917 0.387606 -3.039305
v 3.286016 0.385653 -3.053236
v 3.281870 0.384448 -3.068295
v 3.280642 0.384027 -3.083904
v 3.282378 0.384413 -3.099472
v 3.287010 0.385583 -3.114391
v 3.294361 0.387501 -3.128093
v 3.304152 0.390092 -3.140047
v 3.316000 0.393250 -3.149802
v 3.329451 0.396858 -3.156972
v 3.343989 0.400776 -3.161288
v 3.359061 0.404859 -3.162580
v 3.374084 0.408941 -3.160808
v 3.388477 0.412871 -3.156030
v 3.401688 0.416497 -3.148433
v 3.429508 0.424245 -3.112122
v 3.353873 0.717803 -3.067506
v 3.349241 0.716628 -3.052587
v 3.206743 0.677971 -3.054862
v 3.202597 0.676761 -3.069921
v 3.322415 0.708809 -3.150059
v 3.355610 0.718184 -3.083074
v 3.213644 0.679919 -3.040931
v 3.309198 0.705183 -3.157656
v 3.223036 0.682533 -3.028667
v 3.294806 0.701253 -3.162434
v 3.234563 0.685714 -3.018544
v 3.279788 0.697171 -3.164206
v 3.247775 0.689340 -3.010947
v 3.264717 0.693095 -3.162914
v 3.262167 0.693270 -3.006169
v 3.250178 0.689171 -3.158598
v 3.277185 0.697358 -3.004397
v 3.236721 0.685562 -3.151428
v 3.292256 0.701434 -3.005690
v 3.224873 0.682404 -3.141673
v 3.306801 0.705359 -3.010006
v 3.215089 0.679819 -3.129719
v 3.320251 0.708967 -3.017182
v 3.207737 0.677901 -3.116017
v 3.354376 0.717769 -3.098683
v 3.332100 0.712125 -3.026931
v 3.203100 0.676726 -3.101098
v 3.350235 0.716558 -3.113748
v 3.341890 0.714710 -3.038884
v 3.201369 0.676340 -3.085530
vt 0.500000 0.500000
vt 0.500000 0.500000
vt 0.500000 0.500000
vt 0.500000 0.500000
vt 0.500000 0.500000
vt 0.500000 0.500000
vt 0.500000 0.500000
vt 0.500000 0.500000
vt 0.500000 0.500000
vt 0.500000 0.500000
vt 0.500000 0.500000
vt 0.500000 0.500000
vt 0.500000 0.500000
vt 0.500000 0.500000
vt 0.500000 0.500000
vt 0.500000 0.500000
vt 0.500000 0.500000
vt 0.500000 0.500000
vt 0.500000 0.500000
vt 0.500000 0.500000
vt 0.500000 0.500000
vt 0.500000 0.500000
vt 0.500000 0.500000
vt 0.500000 0.500000
vt 0.500000 0.500000
vt 0.500000 0.500000
vt 0.500000 0.500000
vt 0.500000 0.500000
vt 0.500000 0.500000
vt 0.500000 0.500000
vt 0.500000 0.500000
vt 0.500000 0.500000
vt 0.500000 0.500000
vt 0.500000 0.500000
vt 0.500000 0.500000
vt 0.500000 0.500000
vt 0.500000 0.500000
vt 0.500000 0.500000
vt 0.500000 0.500000
vt 0.500000 0.500000
vt 0.500000 0.500000
vt 0.500000 0.500000
vt 0.500000 0.500000
vt 0.500000 0.500000
vt 0.500000 0.500000
vt 0.500000 0.500000
vt 0.500000 0.500000
vt 0.500000 0.500000
vt 0.500000 0.500000
vt 0.500000 0.500000
vt 0.500000 0.500000
vt 0.500000 0.500000
vt 0.500000 0.500000
vt 0.500000 0.500000
vt 0.500000 0.500000
vt 0.500000 0.500000
vt 0.500000 0.500000
vt 0.500000 0.500000
vt 0.500000 0.500000
vt 0.500000 0.500000
vt 0.500000 0.500000
vt 0.500000 0.500000
vt 0.500000 0.500000
vt 0.500000 0.500000
vn 0.6939 0.1843 -0.6961
vn 0.8114 0.2170 -0.5427
vn 0.2617 -0.9651 0.0054
vn 0.9433 0.2570 0.2102
vn 0.8853 0.2423 0.3968
vn -0.8978 -0.2414 0.3684
vn -0.9496 -0.2565 0.1800
vn 0.5496 0.1445 -0.8228
vn 0.9650 0.2618 0.0153
vn -0.8114 -0.2170 0.5426
vn 0.3843 0.0991 -0.9179
vn -0.6939 -0.1843 0.6961
vn 0.2041 0.0499 -0.9777
vn -0.5496 -0.1445 0.8228
vn 0.0162 -0.0012 -0.9999
vn 0.0163 -0.0012 -0.9999
vn -0.3843 -0.0991 0.9179
vn -0.1722 -0.0522 -0.9837
vn -0.2041 -0.0499 0.9777
vn -0.3542 -0.1012 -0.9297
vn -0.0163 0.0012 0.9999
vn -0.5226 -0.1464 -0.8399
vn 0.1722 0.0522 0.9837
vn -0.6709 -0.1859 -0.7178
vn 0.3544 0.1013 0.9296
vn -0.7933 -0.2183 -0.5683
vn 0.5227 0.1464 0.8399
vn -0.8853 -0.2423 -0.3969
vn 0.9496 0.2565 -0.1800
vn 0.6708 0.1859 0.7180
vn 0.6708 0.1859 0.7179
vn -0.9433 -0.2570 -0.2102
vn 0.8978 0.2414 -0.3684
vn 0.7933 0.2183 0.5683
vn -0.9650 -0.2618 -0.0153
vn -0.2617 0.9651 -0.0054
usemtl Curtain_Wall_CAMP_-_Metal_Column_Silver.001
s 1
f 1/1/1 2/2/2 3/3/2 4/4/1
f 5/5/3 6/6/3 7/7/3 8/8/3 9/9/3 10/10/3 11/11/3 12/12/3 13/13/3 14/14/3 15/15/3 16/16/3 17/17/3 18/18/3 19/19/3 20/20/3 21/21/3 22/22/3 23/23/3 24/24/3 25/25/3 26/26/3 27/27/3 28/28/3 29/29/3 30/30/3 31/31/3 32/32/3 33/33/3 4/4/3 3/3/3 34/34/3
f 35/35/4 36/36/5 8/8/5 7/7/4
f 37/37/6 38/38/7 21/21/7 20/20/6
f 39/39/8 1/1/1 4/4/1 33/33/8
f 40/40/9 35/35/4 7/7/4 6/6/9
f 41/41/10 37/37/6 20/20/6 19/19/10
f 42/42/11 39/39/8 33/33/8 32/32/11
f 43/43/12 41/41/10 19/19/10 18/18/12
f 44/44/13 42/42/11 32/32/11 31/31/13
f 45/45/14 43/43/12 18/18/12 17/17/14
f 46/46/15 44/44/13 31/31/13 30/30/16
f 47/47/17 45/45/14 17/17/14 16/16/17
f 48/48/18 46/46/15 30/30/16 29/29/18
f 49/49/19 47/47/17 16/16/17 15/15/19
f 50/50/20 48/48/18 29/29/18 28/28/20
f 51/51/21 49/49/19 15/15/19 14/14/21
f 52/52/22 50/50/20 28/28/20 27/27/22
f 53/53/23 51/51/21 14/14/21 13/13/23
f 54/54/24 52/52/22 27/27/22 26/26/24
f 55/55/25 53/53/23 13/13/23 12/12/25
f 56/56/26 54/54/24 26/26/24 25/25/26
f 57/57/27 55/55/25 12/12/25 11/11/27
f 58/58/28 56/56/26 25/25/26 24/24/28
f 59/59/29 40/40/9 6/6/9 5/5/29
f 60/60/30 57/57/27 11/11/27 10/10/31
f 61/61/32 58/58/28 24/24/28 23/23/32
f 62/62/33 59/59/29 5/5/29 34/34/33
f 63/63/34 60/60/30 10/10/31 9/9/34
f 64/64/35 61/61/32 23/23/32 22/22/35
f 2/2/2 62/62/33 34/34/33 3/3/2
f 36/36/5 63/63/34 9/9/34 8/8/5
f 38/38/7 64/64/35 22/22/35 21/21/7
f 59/59/36 62/62/36 2/2/36 1/1/36 39/39/36 42/42/36 44/44/36 46/46/36 48/48/36 50/50/36 52/52/36 54/54/36 56/56/36 58/58/36 61/61/36 64/64/36 38/38/36 37/37/36 41/41/36 43/43/36 45/45/36 47/47/36 49/49/36 51/51/36 53/53/36 55/55/36 57/57/36 60/60/36 63/63/36 36/36/36 35/35/36 40/40/36
