# Blender v2.93.5 OBJ File: ''
# www.blender.org
mtllib Number_plate.mtl
o Cube.016_Cube.005
v 0.063538 0.398658 0.386816
v 0.063538 0.428363 0.386816
v -0.068315 0.398658 0.386816
v -0.068315 0.428363 0.386816
v 0.063538 0.428363 0.392022
v 0.063538 0.398658 0.392022
v -0.068315 0.398658 0.392022
v -0.068315 0.428363 0.392022
v 0.056542 0.426113 0.391209
v 0.056542 0.400907 0.391209
v -0.061796 0.400907 0.391209
v -0.061796 0.426113 0.391209
v 0.056542 0.400907 0.391795
v 0.062482 0.399431 0.392022
v 0.056542 0.402384 0.392022
v 0.057338 0.400710 0.391909
v 0.059512 0.400169 0.391992
v 0.062482 0.427590 0.392022
v 0.056542 0.426113 0.391795
v 0.056542 0.424637 0.392022
v 0.059512 0.426852 0.391992
v 0.057338 0.426311 0.391909
v -0.067736 0.399431 0.392022
v -0.061796 0.400907 0.391795
v -0.061796 0.402384 0.392022
v -0.064766 0.400169 0.391992
v -0.062592 0.400710 0.391909
v -0.061796 0.426113 0.391795
v -0.067736 0.427590 0.392022
v -0.061796 0.424637 0.392022
v -0.062592 0.426311 0.391909
v -0.064766 0.426852 0.391992
v 0.007550 0.421221 0.385229
v 0.007550 0.406473 0.385229
v -0.007129 0.421221 0.385229
v -0.007129 0.406473 0.385229
v 0.007550 0.406473 0.386929
v 0.007550 0.421221 0.386929
v -0.007129 0.421221 0.386929
v -0.007129 0.406473 0.386929
v 0.006771 0.407590 0.386664
v 0.006771 0.420104 0.386664
v -0.006403 0.420104 0.386664
v -0.006403 0.407590 0.386664
v 0.006771 0.420104 0.386855
v 0.007432 0.420838 0.386929
v 0.006771 0.419371 0.386929
v 0.006859 0.420203 0.386892
v 0.007101 0.420471 0.386919
v 0.007432 0.406857 0.386929
v 0.006771 0.407590 0.386855
v 0.006771 0.408323 0.386929
v 0.007101 0.407223 0.386919
v 0.006859 0.407492 0.386892
v -0.007064 0.420838 0.386929
v -0.006403 0.420104 0.386855
v -0.006403 0.419371 0.386929
v -0.006734 0.420471 0.386919
v -0.006492 0.420203 0.386892
v -0.006403 0.407590 0.386855
v -0.007064 0.406857 0.386929
v -0.006403 0.408323 0.386929
v -0.006492 0.407492 0.386892
v -0.006734 0.407223 0.386919
v -0.007122 0.418714 0.385229
v -0.007122 0.403966 0.385229
v -0.021801 0.418714 0.385229
v -0.021801 0.403966 0.385229
v -0.007122 0.403966 0.386929
v -0.007122 0.418714 0.386929
v -0.021801 0.418714 0.386929
v -0.021801 0.403966 0.386929
v -0.007901 0.405083 0.386664
v -0.007901 0.417597 0.386664
v -0.021075 0.417597 0.386664
v -0.021075 0.405083 0.386664
v -0.007901 0.417597 0.386855
v -0.007240 0.418331 0.386929
v -0.007901 0.416864 0.386929
v -0.007813 0.417696 0.386892
v -0.007571 0.417964 0.386919
v -0.007240 0.404350 0.386929
v -0.007901 0.405083 0.386855
v -0.007901 0.405816 0.386929
v -0.007571 0.404717 0.386919
v -0.007813 0.404985 0.386892
v -0.021736 0.418331 0.386929
v -0.021075 0.417597 0.386855
v -0.021075 0.416864 0.386929
v -0.021405 0.417964 0.386919
v -0.021163 0.417696 0.386892
v -0.021075 0.405083 0.386855
v -0.021736 0.404350 0.386929
v -0.021075 0.405816 0.386929
v -0.021163 0.404985 0.386892
v -0.021405 0.404717 0.386919
v -0.006320 0.411870 0.386948
v -0.006090 0.478277 0.333109
v -0.006308 0.412298 0.387425
v -0.006077 0.478705 0.336965
v 0.006429 0.411828 0.386927
v 0.006660 0.478235 0.333087
v 0.006441 0.412256 0.387404
v 0.006672 0.478663 0.336944
v 0.022600 0.417687 0.385372
v 0.022600 0.402939 0.385372
v 0.007922 0.417687 0.385372
v 0.007922 0.402939 0.385372
v 0.022600 0.402939 0.387072
v 0.022600 0.417687 0.387072
v 0.007922 0.417687 0.387072
v 0.007922 0.402939 0.387072
v 0.021822 0.404056 0.386807
v 0.021822 0.416570 0.386807
v 0.008648 0.416570 0.386807
v 0.008648 0.404056 0.386807
v 0.021822 0.416570 0.386998
v 0.022483 0.417303 0.387072
v 0.021822 0.415837 0.387072
v 0.021910 0.416668 0.387035
v 0.022152 0.416937 0.387062
v 0.022483 0.403322 0.387072
v 0.021822 0.404056 0.386998
v 0.021822 0.404789 0.387072
v 0.022152 0.403689 0.387062
v 0.021910 0.403957 0.387035
v 0.007987 0.417303 0.387072
v 0.008648 0.416570 0.386998
v 0.008648 0.415837 0.387072
v 0.008317 0.416937 0.387062
v 0.008559 0.416668 0.387035
v 0.008648 0.404056 0.386998
v 0.007987 0.403322 0.387072
v 0.008648 0.404789 0.387072
v 0.008559 0.403957 0.387035
v 0.008317 0.403689 0.387062
vt 0.500000 0.500000
vt 0.500000 0.500000
vt 0.500000 0.500000
vt 0.500000 0.500000
vt 0.500000 0.500000
vt 0.500000 0.500000
vt 0.500000 0.500000
vt 0.500000 0.500000
vt 0.500000 0.500000
vt 0.500000 0.500000
vt 0.500000 0.500000
vt 0.500000 0.500000
vt 0.500000 0.500000
vt 0.500000 0.500000
vt 0.500000 0.500000
vt 0.500000 0.500000
vt 0.500000 0.500000
vt 0.500000 0.500000
vt 0.500000 0.500000
vt 0.500000 0.500000
vt 0.500000 0.500000
vt 0.500000 0.500000
vt 0.500000 0.500000
vt 0.500000 0.500000
vt 0.500000 0.500000
vt 0.500000 0.500000
vt 0.500000 0.500000
vt 0.500000 0.500000
vt 0.500000 0.500000
vt 0.500000 0.500000
vt 0.500000 0.500000
vt 0.500000 0.500000
vt 0.000000 0.000000
vt 0.000000 0.000000
vt 0.000000 0.000000
vt 0.000000 0.000000
vt 0.000000 0.000000
vt 0.000000 0.000000
vt 0.000000 0.000000
vt 0.000000 0.000000
vt 0.000000 0.000000
vt 0.000000 0.000000
vt 0.000000 0.000000
vt 0.000000 0.000000
vt 0.000000 0.000000
vt 0.000000 0.000000
vt 0.000000 0.000000
vt 0.000000 0.000000
vt 0.000000 0.000000
vt 0.000000 0.000000
vt 0.000000 0.000000
vt 0.000000 0.000000
vt 0.000000 0.000000
vt 0.000000 0.000000
vt 0.000000 0.000000
vt 0.000000 0.000000
vt 0.000000 0.000000
vt 0.000000 0.000000
vt 0.000000 0.000000
vt 0.000000 0.000000
vt 0.000000 0.000000
vt 0.000000 0.000000
vt 0.000000 0.000000
vt 0.000000 0.000000
vt 0.000000 0.000000
vt 0.000000 0.000000
vt 0.000000 0.000000
vt 0.000000 0.000000
vt 0.000000 0.000000
vt 0.000000 0.000000
vt 0.000000 0.000000
vt 0.000000 0.000000
vt 0.000000 0.000000
vt 0.000000 0.000000
vt 0.000000 0.000000
vt 0.000000 0.000000
vt 0.000000 0.000000
vt 0.000000 0.000000
vt 0.000000 0.000000
vt 0.000000 0.000000
vt 0.000000 0.000000
vt 0.000000 0.000000
vt 0.000000 0.000000
vt 0.000000 0.000000
vt 0.000000 0.000000
vt 0.000000 0.000000
vt 0.000000 0.000000
vt 0.000000 0.000000
vt 0.000000 0.000000
vt 0.000000 0.000000
vt 0.000000 0.000000
vt 0.000000 0.000000
vt 0.000000 0.000000
vt 0.000000 0.000000
vt 0.000000 0.000000
vt 0.000000 0.000000
vt 0.000000 0.000000
vt 0.000000 0.000000
vt 0.000000 0.000000
vt 0.000000 0.000000
vt 0.000000 0.000000
vt 0.000000 0.000000
vt 0.000000 0.000000
vt 0.000000 0.000000
vt 0.000000 0.000000
vt 0.000000 0.000000
vt 0.000000 0.000000
vt 0.000000 0.000000
vt 0.000000 0.000000
vt 0.000000 0.000000
vt 0.000000 0.000000
vt 0.000000 0.000000
vt 0.000000 0.000000
vt 0.000000 0.000000
vt 0.000000 0.000000
vt 0.000000 0.000000
vt 0.000000 0.000000
vt 0.000000 0.000000
vt 0.000000 0.000000
vt 0.000000 0.000000
vt 0.000000 0.000000
vt 0.000000 0.000000
vt 0.000000 0.000000
vt 0.000000 0.000000
vt 0.000000 0.000000
vt 0.000000 0.000000
vt 0.000000 0.000000
vt 0.000000 0.000000
vt 0.000000 0.000000
vt 0.000000 0.000000
vt 0.000000 0.000000
vt 0.000000 0.000000
vt 0.000000 0.000000
vt 0.000000 0.000000
vt 0.000000 0.000000
vt 0.000000 0.000000
vn 1.0000 0.0000 0.0000
vn -1.0000 0.0000 0.0000
vn 0.0000 0.0000 -1.0000
vn 0.0000 -1.0000 0.0000
vn 0.0000 1.0000 0.0000
vn 0.0000 0.0000 1.0000
vn -0.1757 -0.1493 0.9730
vn -0.0619 -0.0967 0.9934
vn -0.0204 -0.0411 0.9989
vn -0.0204 0.0411 0.9989
vn -0.0620 0.0967 0.9934
vn -0.1757 0.1493 0.9730
vn 0.0204 -0.0411 0.9989
vn 0.0620 -0.0967 0.9934
vn 0.1757 -0.1493 0.9731
vn 0.1757 0.1493 0.9730
vn 0.0620 0.0967 0.9934
vn 0.0204 0.0411 0.9989
vn 0.0000 0.0411 0.9992
vn 0.0000 0.1517 0.9884
vn 0.0000 0.4970 0.8678
vn 0.0000 -0.0411 0.9992
vn 0.0000 -0.1517 0.9884
vn 0.0000 -0.4970 0.8678
vn 0.0001 0.0000 -1.0000
vn 0.4661 -0.0888 -0.8802
vn 0.1791 -0.0628 -0.9818
vn 0.0604 -0.0270 -0.9978
vn 0.0604 0.0270 -0.9978
vn 0.1791 0.0628 -0.9818
vn 0.4661 0.0888 -0.8802
vn -0.0604 -0.0270 -0.9978
vn -0.1791 -0.0628 -0.9818
vn -0.4661 -0.0888 -0.8802
vn -0.4661 0.0888 -0.8802
vn -0.1791 0.0628 -0.9818
vn -0.0604 0.0270 -0.9978
vn 0.0000 0.0271 -0.9996
vn 0.0000 0.1004 -0.9949
vn 0.0000 0.3523 -0.9359
vn 0.0000 -0.0271 -0.9996
vn 0.0000 -0.1004 -0.9949
vn 0.0000 -0.3523 -0.9359
vn 0.0601 0.0270 -0.9978
vn 0.1790 0.0628 -0.9818
vn 0.4662 0.0888 -0.8802
vn -0.1791 -0.0629 -0.9818
vn -0.4662 0.0888 -0.8802
vn -0.1790 0.0628 -0.9818
vn -0.0599 0.0270 -0.9978
vn 0.0000 0.3524 -0.9358
vn 0.0000 -0.3524 -0.9358
vn 1.0000 -0.0068 -0.0042
vn -0.0033 -0.6050 -0.7962
vn -1.0000 0.0068 0.0042
vn 0.0034 0.6298 0.7768
vn 0.0013 0.7442 -0.6679
vn -0.0031 -0.9939 0.1104
vn 0.4656 -0.0889 -0.8805
vn 0.1797 -0.0628 -0.9817
vn 0.0599 -0.0269 -0.9978
vn 0.0599 0.0269 -0.9978
vn 0.1794 0.0628 -0.9818
vn -0.0599 -0.0269 -0.9978
vn -0.1797 -0.0628 -0.9817
vn -0.4656 -0.0889 -0.8805
vn -0.1794 0.0628 -0.9818
vn -0.0599 0.0269 -0.9978
vn 0.0000 0.0270 -0.9996
vn 0.0000 0.3526 -0.9358
vn 0.0000 -0.0270 -0.9996
vn 0.0000 -0.3526 -0.9358
usemtl Matte_plastic_plate_with_holes
s off
f 1/1/1 2/2/1 5/3/1 6/4/1
f 28/5/1 30/6/1 25/7/1 24/8/1 11/9/1 12/10/1
f 7/11/2 8/12/2 4/13/2 3/14/2
f 3/14/3 4/13/3 2/2/3 1/1/3
f 6/4/4 7/11/4 3/14/4 1/1/4
f 8/12/5 5/3/5 2/2/5 4/13/5
f 24/8/5 13/15/5 10/16/5 11/9/5
f 18/17/6 20/18/6 15/19/6 14/20/6 6/4/6 5/3/6
f 19/21/4 28/5/4 12/10/4 9/22/4
f 10/16/6 9/22/6 12/10/6 11/9/6
f 14/20/6 23/23/6 7/11/6 6/4/6
f 23/23/6 25/7/6 30/6/6 29/24/6 8/12/6 7/11/6
f 29/24/6 18/17/6 5/3/6 8/12/6
f 13/15/7 16/25/7 15/19/7
f 16/25/8 17/26/8 15/19/8
f 17/26/9 14/20/9 15/19/9
f 18/17/10 21/27/10 20/18/10
f 21/27/11 22/28/11 20/18/11
f 22/28/12 19/21/12 20/18/12
f 23/23/13 26/29/13 25/7/13
f 26/29/14 27/30/14 25/7/14
f 27/30/15 24/8/15 25/7/15
f 28/5/16 31/31/16 30/6/16
f 31/31/17 32/32/17 30/6/17
f 32/32/18 29/24/18 30/6/18
f 23/23/19 14/20/19 17/26/19 26/29/19
f 26/29/20 17/26/20 16/25/20 27/30/20
f 27/30/21 16/25/21 13/15/21 24/8/21
f 18/17/22 29/24/22 32/32/22 21/27/22
f 21/27/23 32/32/23 31/31/23 22/28/23
f 22/28/24 31/31/24 28/5/24 19/21/24
f 13/15/2 15/19/2 20/18/2 19/21/2 9/22/2 10/16/2
f 33/33/2 34/34/2 37/35/2 38/36/2
f 60/37/2 62/38/2 57/39/2 56/40/2 43/41/2 44/42/2
f 39/43/1 40/44/1 36/45/1 35/46/1
f 35/46/6 36/45/6 34/34/6 33/33/6
f 38/36/4 39/43/4 35/46/4 33/33/4
f 40/44/5 37/35/5 34/34/5 36/45/5
f 56/40/5 45/47/5 42/48/5 43/41/5
f 50/49/3 52/50/3 47/51/3 46/52/3 38/36/3 37/35/3
f 51/53/4 60/37/4 44/42/4 41/54/4
f 42/48/3 41/54/3 44/42/3 43/41/3
f 46/52/3 55/55/3 39/43/3 38/36/3
f 55/55/25 57/39/25 62/38/25 61/56/25 40/44/25 39/43/25
f 61/56/3 50/49/3 37/35/3 40/44/3
f 45/47/26 48/57/26 47/51/26
f 48/57/27 49/58/27 47/51/27
f 49/58/28 46/52/28 47/51/28
f 50/49/29 53/59/29 52/50/29
f 53/59/30 54/60/30 52/50/30
f 54/60/31 51/53/31 52/50/31
f 55/55/32 58/61/32 57/39/32
f 58/61/33 59/62/33 57/39/33
f 59/62/34 56/40/34 57/39/34
f 60/37/35 63/63/35 62/38/35
f 63/63/36 64/64/36 62/38/36
f 64/64/37 61/56/37 62/38/37
f 55/55/38 46/52/38 49/58/38 58/61/38
f 58/61/39 49/58/39 48/57/39 59/62/39
f 59/62/40 48/57/40 45/47/40 56/40/40
f 50/49/41 61/56/41 64/64/41 53/59/41
f 53/59/42 64/64/42 63/63/42 54/60/42
f 54/60/43 63/63/43 60/37/43 51/53/43
f 45/47/1 47/51/1 52/50/1 51/53/1 41/54/1 42/48/1
f 65/65/2 66/66/2 69/67/2 70/68/2
f 92/69/2 94/70/2 89/71/2 88/72/2 75/73/2 76/74/2
f 71/75/1 72/76/1 68/77/1 67/78/1
f 67/78/6 68/77/6 66/66/6 65/65/6
f 70/68/4 71/75/4 67/78/4 65/65/4
f 72/76/5 69/67/5 66/66/5 68/77/5
f 88/72/5 77/79/5 74/80/5 75/73/5
f 82/81/3 84/82/3 79/83/3 78/84/3 70/68/3 69/67/3
f 83/85/4 92/69/4 76/74/4 73/86/4
f 74/80/3 73/86/3 76/74/3 75/73/3
f 78/84/3 87/87/3 71/75/3 70/68/3
f 87/87/3 89/71/3 94/70/3 93/88/3 72/76/3 71/75/3
f 93/88/3 82/81/3 69/67/3 72/76/3
f 77/79/26 80/89/26 79/83/26
f 80/89/27 81/90/27 79/83/27
f 81/90/28 78/84/28 79/83/28
f 82/81/44 85/91/44 84/82/44
f 85/91/45 86/92/45 84/82/45
f 86/92/46 83/85/46 84/82/46
f 87/87/32 90/93/32 89/71/32
f 90/93/47 91/94/47 89/71/47
f 91/94/34 88/72/34 89/71/34
f 92/69/48 95/95/48 94/70/48
f 95/95/49 96/96/49 94/70/49
f 96/96/50 93/88/50 94/70/50
f 87/87/38 78/84/38 81/90/38 90/93/38
f 90/93/39 81/90/39 80/89/39 91/94/39
f 91/94/51 80/89/51 77/79/51 88/72/51
f 82/81/41 93/88/41 96/96/41 85/91/41
f 85/91/42 96/96/42 95/95/42 86/92/42
f 86/92/52 95/95/52 92/69/52 83/85/52
f 77/79/1 79/83/1 84/82/1 83/85/1 73/86/1 74/80/1
usemtl Curtain_Wall_CAMP_-_Metal_Column_Silver.002
f 97/97/53 98/98/53 100/99/53 99/100/53
f 99/100/54 100/99/54 104/101/54 103/102/54
f 103/102/55 104/101/55 102/103/55 101/104/55
f 101/104/56 102/103/56 98/98/56 97/97/56
f 99/100/57 103/102/57 101/104/57 97/97/57
f 104/101/58 100/99/58 98/98/58 102/103/58
f 105/105/2 106/106/2 109/107/2 110/108/2
f 132/109/2 134/110/2 129/111/2 128/112/2 115/113/2 116/114/2
f 111/115/1 112/116/1 108/117/1 107/118/1
f 107/118/6 108/117/6 106/106/6 105/105/6
f 110/108/4 111/115/4 107/118/4 105/105/4
f 112/116/5 109/107/5 106/106/5 108/117/5
f 128/112/5 117/119/5 114/120/5 115/113/5
f 122/121/3 124/122/3 119/123/3 118/124/3 110/108/3 109/107/3
f 123/125/4 132/109/4 116/114/4 113/126/4
f 114/120/3 113/126/3 116/114/3 115/113/3
f 118/124/3 127/127/3 111/115/3 110/108/3
f 127/127/3 129/111/3 134/110/3 133/128/3 112/116/3 111/115/3
f 133/128/3 122/121/3 109/107/3 112/116/3
f 117/119/59 120/129/59 119/123/59
f 120/129/60 121/130/60 119/123/60
f 121/130/61 118/124/61 119/123/61
f 122/121/62 125/131/62 124/122/62
f 125/131/63 126/132/63 124/122/63
f 126/132/46 123/125/46 124/122/46
f 127/127/64 130/133/64 129/111/64
f 130/133/65 131/134/65 129/111/65
f 131/134/66 128/112/66 129/111/66
f 132/109/35 135/135/35 134/110/35
f 135/135/67 136/136/67 134/110/67
f 136/136/68 133/128/68 134/110/68
f 127/127/69 118/124/69 121/130/69 130/133/69
f 130/133/39 121/130/39 120/129/39 131/134/39
f 131/134/70 120/129/70 117/119/70 128/112/70
f 122/121/71 133/128/71 136/136/71 125/131/71
f 125/131/42 136/136/42 135/135/42 126/132/42
f 126/132/72 135/135/72 132/109/72 123/125/72
f 117/119/1 119/123/1 124/122/1 123/125/1 113/126/1 114/120/1
