# Blender v2.93.5 OBJ File: ''
# www.blender.org
mtllib plates.mtl
o Cube.001_Cube
v 4.701175 0.421234 -3.208366
v 4.685449 0.484079 -3.208366
v 4.685449 0.484079 -2.913404
v 4.701175 0.421234 -2.913404
v 4.486170 0.434217 -2.715962
v 4.486170 0.434217 -3.435921
v 4.378434 0.407262 -3.435921
v 4.378434 0.407262 -2.715962
v 4.630797 0.470406 -2.715962
v 4.644944 0.473944 -2.722694
v 4.658126 0.477242 -2.742420
v 4.669442 0.480073 -2.773796
v 4.678127 0.482243 -2.814686
v 4.683589 0.483611 -2.862303
v 4.683303 0.483541 -3.267258
v 4.677010 0.481968 -3.322144
v 4.666998 0.479459 -3.369269
v 4.653956 0.476195 -3.405434
v 4.638762 0.472394 -3.428166
v 4.622463 0.468318 -3.435921
v 4.501896 0.371372 -3.435921
v 4.638189 0.405473 -3.435921
v 4.699029 0.420696 -3.267258
v 4.692736 0.419122 -3.322144
v 4.682724 0.416614 -3.369269
v 4.669682 0.413350 -3.405434
v 4.654489 0.409549 -3.428166
v 4.646523 0.407561 -2.715962
v 4.501896 0.371372 -2.715962
v 4.699309 0.420766 -2.862303
v 4.693853 0.419397 -2.814686
v 4.685168 0.417228 -2.773796
v 4.673846 0.414397 -2.742420
v 4.660665 0.411099 -2.722694
v 4.394160 0.344417 -2.715962
v 4.394160 0.344417 -3.435921
v 4.654799 0.609914 -3.206834
v 4.639073 0.672506 -3.206834
v 4.639073 0.672506 -2.911872
v 4.654799 0.609914 -2.911872
v 4.439794 0.622851 -2.714436
v 4.439794 0.622851 -3.434389
v 4.332058 0.596004 -3.434389
v 4.332058 0.596004 -2.714436
v 4.584421 0.658888 -2.714436
v 4.598568 0.662412 -2.721161
v 4.611750 0.665697 -2.740887
v 4.623066 0.668516 -2.772263
v 4.631751 0.670683 -2.813154
v 4.637213 0.672046 -2.860770
v 4.636927 0.671970 -3.265726
v 4.630634 0.670403 -3.320611
v 4.620627 0.667910 -3.367737
v 4.607580 0.664660 -3.403902
v 4.592392 0.660874 -3.426634
v 4.576087 0.656814 -3.434389
v 4.455520 0.560259 -3.434389
v 4.591813 0.594222 -3.434389
v 4.652652 0.609378 -3.265726
v 4.646359 0.607811 -3.320611
v 4.636347 0.605318 -3.367737
v 4.623306 0.602068 -3.403902
v 4.608112 0.598282 -3.426634
v 4.600147 0.596296 -2.714436
v 4.455520 0.560259 -2.714436
v 4.652933 0.609454 -2.860770
v 4.647477 0.608091 -2.813154
v 4.638792 0.605924 -2.772263
v 4.627470 0.603105 -2.740887
v 4.614294 0.599820 -2.721161
v 4.347784 0.533413 -2.714436
v 4.347784 0.533413 -3.434389
vt 0.375000 0.829017
vt 0.625000 0.829017
vt 0.625000 0.931440
vt 0.375000 0.931440
vt 0.875000 0.500000
vt 0.625000 0.500000
vt 0.625000 0.364840
vt 0.875000 0.364840
vt 0.875000 0.681440
vt 0.872664 0.699184
vt 0.865815 0.715720
vt 0.854919 0.729919
vt 0.840720 0.740814
vt 0.824184 0.747664
vt 0.806440 0.750000
vt 0.704017 0.750000
vt 0.683566 0.747307
vt 0.664509 0.739414
vt 0.648144 0.726856
vt 0.635586 0.710491
vt 0.627692 0.691434
vt 0.625000 0.670983
vt 0.375000 0.500000
vt 0.375000 0.670983
vt 0.375000 0.808566
vt 0.625000 0.808566
vt 0.375000 0.789509
vt 0.625000 0.789509
vt 0.375000 0.750000
vt 0.625000 0.750000
vt 0.375000 0.710491
vt 0.625000 0.710491
vt 0.375000 0.691434
vt 0.625000 0.691434
vt 0.375000 0.068560
vt 0.625000 0.068560
vt 0.625000 0.250000
vt 0.375000 0.250000
vt 0.625000 0.949184
vt 0.375000 0.949184
vt 0.625000 0.965720
vt 0.375000 0.965720
vt 0.625000 1.000000
vt 0.375000 1.000000
vt 0.375000 0.000000
vt 0.625000 0.000000
vt 0.625000 0.034280
vt 0.375000 0.034280
vt 0.625000 0.050816
vt 0.375000 0.050816
vt 0.125000 0.500000
vt 0.372308 0.691434
vt 0.364414 0.710491
vt 0.351856 0.726856
vt 0.335491 0.739414
vt 0.316434 0.747308
vt 0.295983 0.750000
vt 0.193560 0.750000
vt 0.175816 0.747664
vt 0.159280 0.740815
vt 0.145081 0.729919
vt 0.134185 0.715720
vt 0.127336 0.699184
vt 0.125000 0.681440
vt 0.375000 0.250000
vt 0.625000 0.250000
vt 0.625000 0.500000
vt 0.375000 0.500000
vt 0.625000 0.385160
vt 0.375000 0.385160
vt 0.375000 0.364840
vt 0.125000 0.364840
vt 0.375000 0.829017
vt 0.625000 0.829017
vt 0.625000 0.931440
vt 0.375000 0.931440
vt 0.875000 0.500000
vt 0.625000 0.500000
vt 0.625000 0.364840
vt 0.875000 0.364840
vt 0.875000 0.681440
vt 0.872664 0.699184
vt 0.865815 0.715720
vt 0.854919 0.729919
vt 0.840720 0.740814
vt 0.824184 0.747664
vt 0.806440 0.750000
vt 0.704017 0.750000
vt 0.683566 0.747307
vt 0.664509 0.739414
vt 0.648144 0.726856
vt 0.635586 0.710491
vt 0.627692 0.691434
vt 0.625000 0.670983
vt 0.375000 0.500000
vt 0.375000 0.670983
vt 0.375000 0.808566
vt 0.625000 0.808566
vt 0.375000 0.789509
vt 0.625000 0.789509
vt 0.375000 0.750000
vt 0.625000 0.750000
vt 0.375000 0.710491
vt 0.625000 0.710491
vt 0.375000 0.691434
vt 0.625000 0.691434
vt 0.375000 0.068560
vt 0.625000 0.068560
vt 0.625000 0.250000
vt 0.375000 0.250000
vt 0.625000 0.949184
vt 0.375000 0.949184
vt 0.625000 0.965720
vt 0.375000 0.965720
vt 0.625000 1.000000
vt 0.375000 1.000000
vt 0.375000 0.000000
vt 0.625000 0.000000
vt 0.625000 0.034280
vt 0.375000 0.034280
vt 0.625000 0.050816
vt 0.375000 0.050816
vt 0.125000 0.500000
vt 0.372308 0.691434
vt 0.364414 0.710491
vt 0.351856 0.726856
vt 0.335491 0.739414
vt 0.316434 0.747308
vt 0.295983 0.750000
vt 0.193560 0.750000
vt 0.175816 0.747664
vt 0.159280 0.740815
vt 0.145081 0.729919
vt 0.134185 0.715720
vt 0.127336 0.699184
vt 0.125000 0.681440
vt 0.375000 0.250000
vt 0.625000 0.250000
vt 0.625000 0.500000
vt 0.375000 0.500000
vt 0.625000 0.385160
vt 0.375000 0.385160
vt 0.375000 0.364840
vt 0.125000 0.364840
vn 0.9699 0.2427 -0.0188
vn 0.9699 0.2427 0.0188
vn -0.2427 0.9701 -0.0000
vn 0.0000 0.0000 -1.0000
vn 0.2081 0.0521 -0.9767
vn 0.9672 0.2420 -0.0775
vn 0.9567 0.2394 -0.1659
vn 0.9308 0.2329 -0.2819
vn 0.8606 0.2154 -0.4614
vn 0.7988 0.1999 -0.5674
vn 0.4061 0.1016 -0.9082
vn 0.2082 0.0521 0.9767
vn 0.0000 0.0000 1.0000
vn 0.9672 0.2420 0.0775
vn 0.9567 0.2394 0.1658
vn 0.9308 0.2329 0.2819
vn 0.8607 0.2153 0.4614
vn 0.7989 0.1998 0.5673
vn 0.4062 0.1017 0.9081
vn 0.2427 -0.9701 0.0000
vn -0.9701 -0.2427 0.0000
vn 0.9697 0.2436 -0.0188
vn 0.9697 0.2436 0.0188
vn -0.2418 0.9703 0.0000
vn 0.2078 0.0522 -0.9768
vn 0.2083 0.0523 -0.9767
vn 0.9669 0.2429 -0.0775
vn 0.9564 0.2403 -0.1658
vn 0.9306 0.2338 -0.2818
vn 0.8605 0.2162 -0.4613
vn 0.8605 0.2161 -0.4614
vn 0.7988 0.2007 -0.5672
vn 0.4065 0.1021 -0.9079
vn 0.2082 0.0523 0.9767
vn 0.2077 0.0522 0.9768
vn 0.9670 0.2429 0.0775
vn 0.9564 0.2403 0.1658
vn 0.9305 0.2338 0.2819
vn 0.9305 0.2338 0.2818
vn 0.8605 0.2162 0.4614
vn 0.8605 0.2162 0.4613
vn 0.7988 0.2007 0.5671
vn 0.4063 0.1021 0.9080
vn 0.2418 -0.9703 -0.0000
vn -0.9699 -0.2437 0.0000
usemtl metal_black.001
s 1
f 1/1/1 2/2/1 3/3/2 4/4/2
f 5/5/3 6/6/3 7/7/3 8/8/3
f 6/6/3 5/5/3 9/9/3 10/10/3 11/11/3 12/12/3 13/13/3 14/14/3 3/15/3 2/16/3 15/17/3 16/18/3 17/19/3 18/20/3 19/21/3 20/22/3
f 21/23/4 6/6/4 20/22/5 22/24/5
f 2/2/1 1/1/1 23/25/6 15/26/6
f 15/26/6 23/25/6 24/27/7 16/28/7
f 16/28/7 24/27/7 25/29/8 17/30/8
f 17/30/8 25/29/8 26/31/9 18/32/9
f 18/32/9 26/31/9 27/33/10 19/34/10
f 19/34/11 27/33/11 22/24/5 20/22/5
f 28/35/12 9/36/12 5/37/13 29/38/13
f 4/4/2 3/3/2 14/39/14 30/40/14
f 30/40/14 14/39/14 13/41/15 31/42/15
f 31/42/15 13/41/15 12/43/16 32/44/16
f 32/45/16 12/46/16 11/47/17 33/48/17
f 33/48/17 11/47/17 10/49/18 34/50/18
f 34/50/19 10/49/19 9/36/12 28/35/12
f 29/51/20 21/23/20 22/24/20 27/52/20 26/53/20 25/54/20 24/55/20 23/56/20 1/57/20 4/58/20 30/59/20 31/60/20 32/61/20 33/62/20 34/63/20 28/64/20
f 35/65/21 8/66/21 7/67/21 36/68/21
f 29/38/13 5/37/13 8/69/13 35/70/13
f 6/6/4 21/23/4 36/71/4 7/7/4
f 21/23/20 29/51/20 35/72/20 36/71/20
f 37/73/22 38/74/22 39/75/23 40/76/23
f 41/77/24 42/78/24 43/79/24 44/80/24
f 42/78/24 41/77/24 45/81/24 46/82/24 47/83/24 48/84/24 49/85/24 50/86/24 39/87/24 38/88/24 51/89/24 52/90/24 53/91/24 54/92/24 55/93/24 56/94/24
f 57/95/4 42/78/4 56/94/25 58/96/26
f 38/74/22 37/73/22 59/97/27 51/98/27
f 51/98/27 59/97/27 60/99/28 52/100/28
f 52/100/28 60/99/28 61/101/29 53/102/29
f 53/102/29 61/101/29 62/103/30 54/104/31
f 54/104/31 62/103/30 63/105/32 55/106/32
f 55/106/33 63/105/33 58/96/26 56/94/25
f 64/107/34 45/108/35 41/109/13 65/110/13
f 40/76/23 39/75/23 50/111/36 66/112/36
f 66/112/36 50/111/36 49/113/37 67/114/37
f 67/114/37 49/113/37 48/115/38 68/116/39
f 68/117/39 48/118/38 47/119/40 69/120/41
f 69/120/41 47/119/40 46/121/42 70/122/42
f 70/122/43 46/121/43 45/108/35 64/107/34
f 65/123/44 57/95/44 58/96/44 63/124/44 62/125/44 61/126/44 60/127/44 59/128/44 37/129/44 40/130/44 66/131/44 67/132/44 68/133/44 69/134/44 70/135/44 64/136/44
f 71/137/45 44/138/45 43/139/45 72/140/45
f 65/110/13 41/109/13 44/141/13 71/142/13
f 42/78/4 57/95/4 72/143/4 43/79/4
f 57/95/44 65/123/44 71/144/44 72/143/44
