# Blender v2.93.5 OBJ File: ''
# www.blender.org
mtllib rodduuuuu.mtl
o Cylinder.034_Cylinder.044
v 0.100625 0.404335 -0.187977
v 0.100625 0.404573 -0.185565
v 0.100625 0.405276 -0.183246
v 0.100625 0.406419 -0.181108
v 0.100625 0.407956 -0.179235
v 0.100625 0.409830 -0.177698
v 0.100625 0.411967 -0.176555
v 0.100625 0.414286 -0.175852
v 0.100625 0.416698 -0.175614
v 0.100625 0.419110 -0.175852
v 0.100625 0.421429 -0.176555
v 0.100625 0.423566 -0.177698
v 0.100625 0.425440 -0.179235
v 0.100625 0.426977 -0.181108
v 0.100625 0.428120 -0.183246
v 0.100625 0.428823 -0.185565
v 0.100625 0.429061 -0.187977
v 0.100625 0.428823 -0.190389
v 0.100625 0.428120 -0.192708
v 0.100625 0.426977 -0.194845
v 0.100625 0.425440 -0.196719
v 0.100625 0.423566 -0.198256
v 0.100625 0.421429 -0.199398
v 0.100625 0.419110 -0.200102
v 0.100625 0.416698 -0.200339
v 0.100625 0.414286 -0.200102
v 0.100625 0.411967 -0.199398
v 0.100625 0.409830 -0.198256
v 0.100625 0.407956 -0.196719
v 0.100625 0.406419 -0.194845
v 0.100625 0.405276 -0.192708
v 0.100625 0.404573 -0.190389
v 0.109014 0.403318 -0.187977
v 0.109014 0.403575 -0.185366
v 0.100625 0.403202 -0.185292
v 0.109014 0.404336 -0.182856
v 0.100625 0.403985 -0.182711
v 0.109014 0.405573 -0.180543
v 0.100625 0.405257 -0.180332
v 0.109014 0.407237 -0.178516
v 0.100625 0.406968 -0.178247
v 0.109014 0.409264 -0.176852
v 0.100625 0.409053 -0.176535
v 0.109014 0.411578 -0.175615
v 0.100625 0.411432 -0.175264
v 0.109014 0.414088 -0.174854
v 0.100625 0.414014 -0.174481
v 0.109014 0.416698 -0.174597
v 0.100625 0.416698 -0.174216
v 0.109014 0.419308 -0.174854
v 0.100625 0.419383 -0.174481
v 0.109014 0.421818 -0.175615
v 0.100625 0.421964 -0.175264
v 0.109014 0.424132 -0.176852
v 0.100625 0.424343 -0.176535
v 0.109014 0.426159 -0.178516
v 0.100625 0.426428 -0.178247
v 0.109014 0.427823 -0.180543
v 0.100625 0.428140 -0.180332
v 0.109014 0.429060 -0.182856
v 0.100625 0.429411 -0.182711
v 0.109014 0.429821 -0.185366
v 0.100625 0.430194 -0.185292
v 0.109014 0.430078 -0.187977
v 0.100625 0.430459 -0.187977
v 0.109014 0.429821 -0.190587
v 0.100625 0.430194 -0.190661
v 0.109014 0.429060 -0.193097
v 0.100625 0.429411 -0.193243
v 0.109014 0.427823 -0.195410
v 0.100625 0.428140 -0.195622
v 0.109014 0.426159 -0.197438
v 0.100625 0.426428 -0.197707
v 0.109014 0.424132 -0.199102
v 0.100625 0.424343 -0.199418
v 0.109014 0.421818 -0.200338
v 0.100625 0.421964 -0.200690
v 0.109014 0.419308 -0.201100
v 0.100625 0.419383 -0.201473
v 0.109014 0.416698 -0.201357
v 0.100625 0.416698 -0.201737
v 0.109014 0.414088 -0.201100
v 0.100625 0.414014 -0.201473
v 0.109014 0.411578 -0.200338
v 0.100625 0.411432 -0.200690
v 0.109014 0.409264 -0.199102
v 0.100625 0.409053 -0.199418
v 0.109014 0.407237 -0.197438
v 0.100625 0.406968 -0.197707
v 0.109014 0.405573 -0.195410
v 0.100625 0.405257 -0.195622
v 0.109014 0.404336 -0.193097
v 0.100625 0.403985 -0.193243
v 0.109014 0.403575 -0.190587
v 0.100625 0.403202 -0.190661
v 0.100625 0.402937 -0.187977
v -0.097601 0.404335 -0.187977
v -0.097601 0.404573 -0.185565
v -0.097601 0.405276 -0.183246
v -0.097601 0.406419 -0.181108
v -0.097601 0.407956 -0.179235
v -0.097601 0.409830 -0.177698
v -0.097601 0.411967 -0.176555
v -0.097601 0.414286 -0.175852
v -0.097601 0.416698 -0.175614
v -0.097601 0.419110 -0.175852
v -0.097601 0.421429 -0.176555
v -0.097601 0.423566 -0.177698
v -0.097601 0.425440 -0.179235
v -0.097601 0.426977 -0.181108
v -0.097601 0.428120 -0.183246
v -0.097601 0.428823 -0.185565
v -0.097601 0.429061 -0.187977
v -0.097601 0.428823 -0.190389
v -0.097601 0.428120 -0.192708
v -0.097601 0.426977 -0.194845
v -0.097601 0.425440 -0.196719
v -0.097601 0.423566 -0.198256
v -0.097601 0.421429 -0.199398
v -0.097601 0.419110 -0.200102
v -0.097601 0.416698 -0.200339
v -0.097601 0.414286 -0.200102
v -0.097601 0.411967 -0.199398
v -0.097601 0.409830 -0.198256
v -0.097601 0.407956 -0.196719
v -0.097601 0.406419 -0.194845
v -0.097601 0.405276 -0.192708
v -0.097601 0.404573 -0.190389
v -0.105812 0.403794 -0.185410
v -0.105812 0.403541 -0.187977
v -0.097601 0.403244 -0.187977
v -0.105812 0.404542 -0.182942
v -0.105812 0.405758 -0.180667
v -0.105812 0.407395 -0.178673
v -0.105812 0.409388 -0.177037
v -0.105812 0.411663 -0.175821
v -0.105812 0.414131 -0.175072
v -0.105812 0.416698 -0.174820
v -0.105812 0.419265 -0.175072
v -0.105812 0.421733 -0.175821
v -0.105812 0.424008 -0.177037
v -0.105812 0.426002 -0.178673
v -0.105812 0.427638 -0.180667
v -0.105812 0.428854 -0.182942
v -0.105812 0.429602 -0.185410
v -0.105812 0.429855 -0.187977
v -0.105812 0.429602 -0.190544
v -0.105812 0.428854 -0.193012
v -0.105812 0.427638 -0.195286
v -0.105812 0.426002 -0.197280
v -0.105812 0.424008 -0.198917
v -0.105812 0.421733 -0.200132
v -0.105812 0.419265 -0.200881
v -0.105812 0.416698 -0.201134
v -0.105812 0.414131 -0.200881
v -0.105812 0.411663 -0.200132
v -0.105812 0.409388 -0.198917
v -0.105812 0.407395 -0.197280
v -0.105812 0.405758 -0.195286
v -0.105812 0.404542 -0.193012
v -0.105812 0.403794 -0.190544
v -0.097601 0.403502 -0.185352
v -0.097601 0.404268 -0.182828
v -0.097601 0.405511 -0.180502
v -0.097601 0.407185 -0.178463
v -0.097601 0.409223 -0.176790
v -0.097601 0.411549 -0.175547
v -0.097601 0.414073 -0.174781
v -0.097601 0.416698 -0.174523
v -0.097601 0.419323 -0.174781
v -0.097601 0.421847 -0.175547
v -0.097601 0.424173 -0.176790
v -0.097601 0.426212 -0.178463
v -0.097601 0.427885 -0.180502
v -0.097601 0.429128 -0.182828
v -0.097601 0.429894 -0.185352
v -0.097601 0.430152 -0.187977
v -0.097601 0.429894 -0.190602
v -0.097601 0.429128 -0.193125
v -0.097601 0.427885 -0.195451
v -0.097601 0.426212 -0.197490
v -0.097601 0.424173 -0.199163
v -0.097601 0.421847 -0.200407
v -0.097601 0.419323 -0.201172
v -0.097601 0.416698 -0.201431
v -0.097601 0.414073 -0.201172
v -0.097601 0.411549 -0.200407
v -0.097601 0.409223 -0.199163
v -0.097601 0.407185 -0.197490
v -0.097601 0.405511 -0.195451
v -0.097601 0.404268 -0.193125
v -0.097601 0.403502 -0.190602
vt 0.281250 0.966866
vt 0.281250 0.966866
vt 0.312500 0.966866
vt 0.312500 0.966866
vt 0.687500 0.966866
vt 0.687500 0.966866
vt 0.718750 0.966866
vt 0.718750 0.966866
vt 0.250000 0.966866
vt 0.250000 0.966866
vt 0.656250 0.966866
vt 0.656250 0.966866
vt 0.218750 0.966866
vt 0.218750 0.966866
vt 0.625000 0.966866
vt 0.625000 0.966866
vt 0.187500 0.966866
vt 0.187500 0.966866
vt 0.593750 0.966866
vt 0.593750 0.966866
vt 0.156250 0.966866
vt 0.156250 0.966866
vt 0.562500 0.966866
vt 0.562500 0.966866
vt 0.968750 0.966866
vt 0.968750 0.966866
vt 1.000000 0.966866
vt 1.000000 0.966866
vt 0.125000 0.966866
vt 0.125000 0.966866
vt 0.531250 0.966866
vt 0.531250 0.966866
vt 0.937500 0.966866
vt 0.937500 0.966866
vt 0.093750 0.966866
vt 0.093750 0.966866
vt 0.500000 0.966866
vt 0.500000 0.966866
vt 0.906250 0.966866
vt 0.906250 0.966866
vt 0.062500 0.966866
vt 0.062500 0.966866
vt 0.468750 0.966866
vt 0.468750 0.966866
vt 0.875000 0.966866
vt 0.875000 0.966866
vt 0.031250 0.966866
vt 0.031250 0.966866
vt 0.437500 0.966866
vt 0.437500 0.966866
vt 0.843750 0.966866
vt 0.843750 0.966866
vt 0.000000 0.966866
vt 0.000000 0.966866
vt 0.406250 0.966866
vt 0.406250 0.966866
vt 0.812500 0.966866
vt 0.812500 0.966866
vt 0.375000 0.966866
vt 0.375000 0.966866
vt 0.781250 0.966866
vt 0.781250 0.966866
vt 0.343750 0.966866
vt 0.343750 0.966866
vt 0.750000 0.966866
vt 0.750000 0.966866
vt 0.125000 0.540070
vt 0.125000 0.540070
vt 0.093750 0.540070
vt 0.093750 0.540070
vt 0.531250 0.540070
vt 0.531250 0.540070
vt 0.500000 0.540070
vt 0.500000 0.540070
vt 0.937500 0.540070
vt 0.937500 0.540070
vt 0.906250 0.540070
vt 0.906250 0.540070
vt 0.062500 0.540070
vt 0.062500 0.540070
vt 0.468750 0.540070
vt 0.468750 0.540070
vt 0.875000 0.540070
vt 0.875000 0.540070
vt 0.031250 0.540070
vt 0.031250 0.540070
vt 0.437500 0.540070
vt 0.437500 0.540070
vt 0.843750 0.540070
vt 0.843750 0.540070
vt 0.000000 0.540070
vt 0.000000 0.540070
vt 0.406250 0.540070
vt 0.406250 0.540070
vt 0.812500 0.540070
vt 0.812500 0.540070
vt 0.375000 0.540070
vt 0.375000 0.540070
vt 0.781250 0.540070
vt 0.781250 0.540070
vt 0.343750 0.540070
vt 0.343750 0.540070
vt 0.750000 0.540070
vt 0.750000 0.540070
vt 0.312500 0.540070
vt 0.312500 0.540070
vt 0.718750 0.540070
vt 0.718750 0.540070
vt 0.281250 0.540070
vt 0.281250 0.540070
vt 0.687500 0.540070
vt 0.687500 0.540070
vt 0.250000 0.540070
vt 0.250000 0.540070
vt 0.656250 0.540070
vt 0.656250 0.540070
vt 0.218750 0.540070
vt 0.218750 0.540070
vt 0.625000 0.540070
vt 0.625000 0.540070
vt 0.187500 0.540070
vt 0.187500 0.540070
vt 0.593750 0.540070
vt 0.593750 0.540070
vt 0.156250 0.540070
vt 0.156250 0.540070
vt 0.562500 0.540070
vt 0.562500 0.540070
vt 1.000000 0.540070
vt 1.000000 0.540070
vt 0.968750 0.540070
vt 0.968750 0.540070
vt 0.750000 0.490000
vt 0.703178 0.485388
vt 0.658156 0.471731
vt 0.616663 0.449553
vt 0.580294 0.419706
vt 0.550447 0.383337
vt 0.528269 0.341844
vt 0.514612 0.296822
vt 0.510000 0.250000
vt 0.514612 0.203178
vt 0.528269 0.158156
vt 0.550447 0.116663
vt 0.580294 0.080294
vt 0.616663 0.050447
vt 0.658156 0.028269
vt 0.703178 0.014612
vt 0.750000 0.010000
vt 0.796822 0.014612
vt 0.841844 0.028269
vt 0.883337 0.050447
vt 0.919706 0.080294
vt 0.949553 0.116663
vt 0.971731 0.158156
vt 0.985388 0.203178
vt 0.990000 0.250000
vt 0.985388 0.296822
vt 0.971731 0.341844
vt 0.949553 0.383337
vt 0.919706 0.419706
vt 0.883337 0.449553
vt 0.841844 0.471731
vt 0.796822 0.485388
vt 0.031250 0.500000
vt 0.000000 0.500000
vt 0.062500 0.500000
vt 0.093750 0.500000
vt 0.125000 0.500000
vt 0.156250 0.500000
vt 0.187500 0.500000
vt 0.218750 0.500000
vt 0.250000 0.500000
vt 0.281250 0.500000
vt 0.312500 0.500000
vt 0.343750 0.500000
vt 0.375000 0.500000
vt 0.406250 0.500000
vt 0.437500 0.500000
vt 0.468750 0.500000
vt 0.500000 0.500000
vt 0.531250 0.500000
vt 0.562500 0.500000
vt 0.593750 0.500000
vt 0.625000 0.500000
vt 0.656250 0.500000
vt 0.687500 0.500000
vt 0.718750 0.500000
vt 0.750000 0.500000
vt 0.781250 0.500000
vt 0.812500 0.500000
vt 0.843750 0.500000
vt 0.875000 0.500000
vt 0.906250 0.500000
vt 0.937500 0.500000
vt 0.968750 0.500000
vt 1.000000 0.500000
vt 0.968750 1.000000
vt 1.000000 1.000000
vt 0.937500 1.000000
vt 0.906250 1.000000
vt 0.875000 1.000000
vt 0.843750 1.000000
vt 0.812500 1.000000
vt 0.781250 1.000000
vt 0.750000 1.000000
vt 0.718750 1.000000
vt 0.687500 1.000000
vt 0.656250 1.000000
vt 0.625000 1.000000
vt 0.593750 1.000000
vt 0.562500 1.000000
vt 0.531250 1.000000
vt 0.500000 1.000000
vt 0.468750 1.000000
vt 0.437500 1.000000
vt 0.406250 1.000000
vt 0.375000 1.000000
vt 0.343750 1.000000
vt 0.312500 1.000000
vt 0.281250 1.000000
vt 0.250000 1.000000
vt 0.218750 1.000000
vt 0.187500 1.000000
vt 0.156250 1.000000
vt 0.125000 1.000000
vt 0.093750 1.000000
vt 0.062500 1.000000
vt 0.296822 0.485388
vt 0.341844 0.471731
vt 0.383337 0.449553
vt 0.419706 0.419706
vt 0.449553 0.383337
vt 0.471731 0.341844
vt 0.485388 0.296822
vt 0.490000 0.250000
vt 0.485388 0.203178
vt 0.471731 0.158156
vt 0.449553 0.116663
vt 0.419706 0.080294
vt 0.383337 0.050447
vt 0.341844 0.028269
vt 0.296822 0.014612
vt 0.250000 0.010000
vt 0.203178 0.014612
vt 0.158156 0.028269
vt 0.116663 0.050447
vt 0.080294 0.080294
vt 0.050447 0.116663
vt 0.028269 0.158156
vt 0.014612 0.203178
vt 0.010000 0.250000
vt 0.014612 0.296822
vt 0.028269 0.341844
vt 0.050447 0.383337
vt 0.080294 0.419706
vt 0.116663 0.449553
vt 0.158156 0.471731
vt 0.203178 0.485388
vt 0.250000 0.490000
vt 0.031250 1.000000
vt 0.000000 1.000000
vn 1.0000 0.0000 0.0000
vn -1.0000 -0.0000 0.0000
vn 0.0453 -0.9798 -0.1949
vn 0.0453 -0.9990 -0.0000
vn 0.0453 -0.9229 -0.3823
vn 0.0453 -0.8306 -0.5550
vn 0.0453 -0.7064 -0.7064
vn 0.0453 -0.5550 -0.8306
vn 0.0453 -0.3823 -0.9229
vn 0.0453 -0.1949 -0.9798
vn 0.0453 -0.0000 -0.9990
vn 0.0453 0.1949 -0.9798
vn 0.0453 0.3823 -0.9229
vn 0.0453 0.5550 -0.8306
vn 0.0453 0.7064 -0.7064
vn 0.0453 0.8306 -0.5550
vn 0.0453 0.9229 -0.3823
vn 0.0453 0.9798 -0.1949
vn 0.0453 0.9990 -0.0000
vn 0.0453 0.9798 0.1949
vn 0.0453 0.9229 0.3823
vn 0.0453 0.8306 0.5550
vn 0.0453 0.7064 0.7064
vn 0.0453 0.5550 0.8306
vn 0.0453 0.3823 0.9229
vn 0.0453 0.1949 0.9798
vn 0.0453 0.0000 0.9990
vn 0.0453 -0.1949 0.9798
vn 0.0453 -0.3823 0.9229
vn 0.0453 -0.5550 0.8306
vn 0.0453 -0.7064 0.7064
vn 0.0453 -0.8306 0.5550
vn 0.0453 -0.9229 0.3823
vn 0.0453 -0.9798 0.1949
vn 0.0000 -0.9808 -0.1951
vn 0.0000 -1.0000 0.0000
vn -0.0000 -0.9239 -0.3827
vn -0.0000 -0.8315 -0.5556
vn -0.0000 -0.7071 -0.7071
vn -0.0000 -0.5556 -0.8315
vn 0.0000 -0.3827 -0.9239
vn 0.0000 -0.1951 -0.9808
vn 0.0000 0.0000 -1.0000
vn 0.0000 0.1951 -0.9808
vn 0.0000 0.3827 -0.9239
vn 0.0000 0.5556 -0.8315
vn 0.0000 0.7071 -0.7071
vn 0.0000 0.8315 -0.5556
vn 0.0000 0.9239 -0.3827
vn 0.0000 0.9808 -0.1951
vn 0.0000 1.0000 -0.0000
vn 0.0000 0.9808 0.1951
vn 0.0000 0.9239 0.3827
vn 0.0000 0.8315 0.5556
vn 0.0000 0.7071 0.7071
vn 0.0000 0.5556 0.8315
vn 0.0000 0.3827 0.9239
vn 0.0000 0.1951 0.9808
vn 0.0000 0.0000 1.0000
vn -0.0000 -0.1951 0.9808
vn 0.0000 -0.3827 0.9239
vn 0.0000 -0.5556 0.8315
vn -0.0000 -0.7071 0.7071
vn -0.0000 -0.8315 0.5556
vn -0.0000 -0.9239 0.3827
vn -0.0000 -0.9808 0.1951
vn -0.0361 -0.9993 0.0000
vn -0.0361 -0.9801 0.1950
vn -0.0361 -0.9233 0.3824
vn -0.0361 -0.8309 0.5552
vn -0.0361 -0.7066 0.7066
vn -0.0361 -0.5552 0.8309
vn -0.0361 -0.3824 0.9233
vn -0.0361 -0.1950 0.9801
vn -0.0361 -0.0000 0.9993
vn -0.0361 0.1950 0.9801
vn -0.0361 0.3824 0.9233
vn -0.0361 0.5552 0.8309
vn -0.0361 0.7066 0.7066
vn -0.0361 0.8309 0.5552
vn -0.0361 0.9233 0.3824
vn -0.0361 0.9801 0.1950
vn -0.0361 0.9993 -0.0000
vn -0.0361 0.9801 -0.1950
vn -0.0361 0.9233 -0.3824
vn -0.0361 0.8309 -0.5552
vn -0.0361 0.7066 -0.7066
vn -0.0361 0.5552 -0.8309
vn -0.0361 0.3824 -0.9233
vn -0.0361 0.1950 -0.9801
vn -0.0361 -0.0000 -0.9993
vn -0.0361 -0.1950 -0.9801
vn -0.0361 -0.3824 -0.9233
vn -0.0361 -0.5552 -0.8309
vn -0.0361 -0.7066 -0.7066
vn -0.0361 -0.8309 -0.5552
vn -0.0361 -0.9233 -0.3824
vn -0.0361 -0.9801 -0.1950
usemtl Curtain_Wall_CAMP_-_Metal_Column_Silver
s 1
f 120/1/1 184/2/1 183/3/1 119/4/1
f 107/5/1 171/6/1 170/7/1 106/8/1
f 121/9/1 185/10/1 184/2/1 120/1/1
f 108/11/1 172/12/1 171/6/1 107/5/1
f 122/13/1 186/14/1 185/10/1 121/9/1
f 109/15/1 173/16/1 172/12/1 108/11/1
f 123/17/1 187/18/1 186/14/1 122/13/1
f 110/19/1 174/20/1 173/16/1 109/15/1
f 124/21/1 188/22/1 187/18/1 123/17/1
f 111/23/1 175/24/1 174/20/1 110/19/1
f 98/25/1 162/26/1 131/27/1 97/28/1
f 125/29/1 189/30/1 188/22/1 124/21/1
f 112/31/1 176/32/1 175/24/1 111/23/1
f 99/33/1 163/34/1 162/26/1 98/25/1
f 126/35/1 190/36/1 189/30/1 125/29/1
f 113/37/1 177/38/1 176/32/1 112/31/1
f 100/39/1 164/40/1 163/34/1 99/33/1
f 127/41/1 191/42/1 190/36/1 126/35/1
f 114/43/1 178/44/1 177/38/1 113/37/1
f 101/45/1 165/46/1 164/40/1 100/39/1
f 128/47/1 192/48/1 191/42/1 127/41/1
f 115/49/1 179/50/1 178/44/1 114/43/1
f 102/51/1 166/52/1 165/46/1 101/45/1
f 97/53/1 131/54/1 192/48/1 128/47/1
f 116/55/1 180/56/1 179/50/1 115/49/1
f 103/57/1 167/58/1 166/52/1 102/51/1
f 117/59/1 181/60/1 180/56/1 116/55/1
f 104/61/1 168/62/1 167/58/1 103/57/1
f 118/63/1 182/64/1 181/60/1 117/59/1
f 105/65/1 169/66/1 168/62/1 104/61/1
f 119/4/1 183/3/1 182/64/1 118/63/1
f 106/8/1 170/7/1 169/66/1 105/65/1
f 29/67/2 89/68/2 91/69/2 30/70/2
f 16/71/2 63/72/2 65/73/2 17/74/2
f 3/75/2 37/76/2 39/77/2 4/78/2
f 30/70/2 91/69/2 93/79/2 31/80/2
f 17/74/2 65/73/2 67/81/2 18/82/2
f 4/78/2 39/77/2 41/83/2 5/84/2
f 31/80/2 93/79/2 95/85/2 32/86/2
f 18/82/2 67/81/2 69/87/2 19/88/2
f 5/84/2 41/83/2 43/89/2 6/90/2
f 32/86/2 95/85/2 96/91/2 1/92/2
f 19/88/2 69/87/2 71/93/2 20/94/2
f 6/90/2 43/89/2 45/95/2 7/96/2
f 20/94/2 71/93/2 73/97/2 21/98/2
f 7/96/2 45/95/2 47/99/2 8/100/2
f 21/98/2 73/97/2 75/101/2 22/102/2
f 8/100/2 47/99/2 49/103/2 9/104/2
f 22/102/2 75/101/2 77/105/2 23/106/2
f 9/104/2 49/103/2 51/107/2 10/108/2
f 23/106/2 77/105/2 79/109/2 24/110/2
f 10/108/2 51/107/2 53/111/2 11/112/2
f 24/110/2 79/109/2 81/113/2 25/114/2
f 11/112/2 53/111/2 55/115/2 12/116/2
f 25/114/2 81/113/2 83/117/2 26/118/2
f 12/116/2 55/115/2 57/119/2 13/120/2
f 26/118/2 83/117/2 85/121/2 27/122/2
f 13/120/2 57/119/2 59/123/2 14/124/2
f 27/122/2 85/121/2 87/125/2 28/126/2
f 14/124/2 59/123/2 61/127/2 15/128/2
f 1/129/2 96/130/2 35/131/2 2/132/2
f 28/126/2 87/125/2 89/68/2 29/67/2
f 15/128/2 61/127/2 63/72/2 16/71/2
f 2/132/2 35/131/2 37/76/2 3/75/2
f 33/133/1 94/134/1 92/135/1 90/136/1 88/137/1 86/138/1 84/139/1 82/140/1 80/141/1 78/142/1 76/143/1 74/144/1 72/145/1 70/146/1 68/147/1 66/148/1 64/149/1 62/150/1 60/151/1 58/152/1 56/153/1 54/154/1 52/155/1 50/156/1 48/157/1 46/158/1 44/159/1 42/160/1 40/161/1 38/162/1 36/163/1 34/164/1
f 94/165/3 33/166/4 96/91/4 95/85/3
f 92/167/5 94/165/3 95/85/3 93/79/5
f 90/168/6 92/167/5 93/79/5 91/69/6
f 88/169/7 90/168/6 91/69/6 89/68/7
f 86/170/8 88/169/7 89/68/7 87/125/8
f 84/171/9 86/170/8 87/125/8 85/121/9
f 82/172/10 84/171/9 85/121/9 83/117/10
f 80/173/11 82/172/10 83/117/10 81/113/11
f 78/174/12 80/173/11 81/113/11 79/109/12
f 76/175/13 78/174/12 79/109/12 77/105/13
f 74/176/14 76/175/13 77/105/13 75/101/14
f 72/177/15 74/176/14 75/101/14 73/97/15
f 70/178/16 72/177/15 73/97/15 71/93/16
f 68/179/17 70/178/16 71/93/16 69/87/17
f 66/180/18 68/179/17 69/87/17 67/81/18
f 64/181/19 66/180/18 67/81/18 65/73/19
f 62/182/20 64/181/19 65/73/19 63/72/20
f 60/183/21 62/182/20 63/72/20 61/127/21
f 58/184/22 60/183/21 61/127/21 59/123/22
f 56/185/23 58/184/22 59/123/22 57/119/23
f 54/186/24 56/185/23 57/119/23 55/115/24
f 52/187/25 54/186/24 55/115/24 53/111/25
f 50/188/26 52/187/25 53/111/25 51/107/26
f 48/189/27 50/188/26 51/107/26 49/103/27
f 46/190/28 48/189/27 49/103/27 47/99/28
f 44/191/29 46/190/28 47/99/28 45/95/29
f 42/192/30 44/191/29 45/95/29 43/89/30
f 40/193/31 42/192/30 43/89/30 41/83/31
f 38/194/32 40/193/31 41/83/31 39/77/32
f 36/195/33 38/194/32 39/77/32 37/76/33
f 34/196/34 36/195/33 37/76/33 35/131/34
f 33/197/4 34/196/34 35/131/34 96/130/4
f 32/86/35 1/92/36 97/53/36 128/47/35
f 31/80/37 32/86/35 128/47/35 127/41/37
f 30/70/38 31/80/37 127/41/37 126/35/38
f 29/67/39 30/70/38 126/35/38 125/29/39
f 28/126/40 29/67/39 125/29/39 124/21/40
f 27/122/41 28/126/40 124/21/40 123/17/41
f 26/118/42 27/122/41 123/17/41 122/13/42
f 25/114/43 26/118/42 122/13/42 121/9/43
f 24/110/44 25/114/43 121/9/43 120/1/44
f 23/106/45 24/110/44 120/1/44 119/4/45
f 22/102/46 23/106/45 119/4/45 118/63/46
f 21/98/47 22/102/46 118/63/46 117/59/47
f 20/94/48 21/98/47 117/59/47 116/55/48
f 19/88/49 20/94/48 116/55/48 115/49/49
f 18/82/50 19/88/49 115/49/49 114/43/50
f 17/74/51 18/82/50 114/43/50 113/37/51
f 16/71/52 17/74/51 113/37/51 112/31/52
f 15/128/53 16/71/52 112/31/52 111/23/53
f 14/124/54 15/128/53 111/23/53 110/19/54
f 13/120/55 14/124/54 110/19/54 109/15/55
f 12/116/56 13/120/55 109/15/55 108/11/56
f 11/112/57 12/116/56 108/11/56 107/5/57
f 10/108/58 11/112/57 107/5/57 106/8/58
f 9/104/59 10/108/58 106/8/58 105/65/59
f 8/100/60 9/104/59 105/65/59 104/61/60
f 7/96/61 8/100/60 104/61/60 103/57/61
f 6/90/62 7/96/61 103/57/61 102/51/62
f 5/84/63 6/90/62 102/51/62 101/45/63
f 4/78/64 5/84/63 101/45/63 100/39/64
f 3/75/65 4/78/64 100/39/64 99/33/65
f 2/132/66 3/75/65 99/33/65 98/25/66
f 1/129/36 2/132/66 98/25/66 97/28/36
f 131/27/67 162/26/68 129/198/68 130/199/67
f 162/26/68 163/34/69 132/200/69 129/198/68
f 163/34/69 164/40/70 133/201/70 132/200/69
f 164/40/70 165/46/71 134/202/71 133/201/70
f 165/46/71 166/52/72 135/203/72 134/202/71
f 166/52/72 167/58/73 136/204/73 135/203/72
f 167/58/73 168/62/74 137/205/74 136/204/73
f 168/62/74 169/66/75 138/206/75 137/205/74
f 169/66/75 170/7/76 139/207/76 138/206/75
f 170/7/76 171/6/77 140/208/77 139/207/76
f 171/6/77 172/12/78 141/209/78 140/208/77
f 172/12/78 173/16/79 142/210/79 141/209/78
f 173/16/79 174/20/80 143/211/80 142/210/79
f 174/20/80 175/24/81 144/212/81 143/211/80
f 175/24/81 176/32/82 145/213/82 144/212/81
f 176/32/82 177/38/83 146/214/83 145/213/82
f 177/38/83 178/44/84 147/215/84 146/214/83
f 178/44/84 179/50/85 148/216/85 147/215/84
f 179/50/85 180/56/86 149/217/86 148/216/85
f 180/56/86 181/60/87 150/218/87 149/217/86
f 181/60/87 182/64/88 151/219/88 150/218/87
f 182/64/88 183/3/89 152/220/89 151/219/88
f 183/3/89 184/2/90 153/221/90 152/220/89
f 184/2/90 185/10/91 154/222/91 153/221/90
f 185/10/91 186/14/92 155/223/92 154/222/91
f 186/14/92 187/18/93 156/224/93 155/223/92
f 187/18/93 188/22/94 157/225/94 156/224/93
f 188/22/94 189/30/95 158/226/95 157/225/94
f 189/30/95 190/36/96 159/227/96 158/226/95
f 190/36/96 191/42/97 160/228/97 159/227/96
f 129/229/2 132/230/2 133/231/2 134/232/2 135/233/2 136/234/2 137/235/2 138/236/2 139/237/2 140/238/2 141/239/2 142/240/2 143/241/2 144/242/2 145/243/2 146/244/2 147/245/2 148/246/2 149/247/2 150/248/2 151/249/2 152/250/2 153/251/2 154/252/2 155/253/2 156/254/2 157/255/2 158/256/2 159/257/2 160/258/2 161/259/2 130/260/2
f 191/42/97 192/48/98 161/261/98 160/228/97
f 192/48/98 131/54/67 130/262/67 161/261/98
